<?xml version="1.0" encoding="UTF-8" standalone="no"?>
<!DOCTYPE svg PUBLIC "-//W3C//DTD SVG 1.1//EN"
 "http://www.w3.org/Graphics/SVG/1.1/DTD/svg11.dtd">
<!-- Generated by graphviz version 12.2.1 (20241206.2353)
 -->
<!-- Title: DepGraph Pages: 1 -->
<svg width="973pt" height="347pt"
 viewBox="0.00 0.00 972.67 346.80" xmlns="http://www.w3.org/2000/svg" xmlns:xlink="http://www.w3.org/1999/xlink">
<g id="graph0" class="graph" transform="scale(1 1) rotate(0) translate(14.4 332.4)">
<title>DepGraph</title>
<polygon fill="white" stroke="none" points="-14,14 -14,-332 958,-332 958,14 -14,14"/>
<!-- github.com/codemityio/goforma/pkg/code/doc -->
<g id="node1" class="node">
<title>github.com/codemityio/goforma/pkg/code/doc</title>
<polygon fill="#fcfcfc" stroke="#949494" points="912,-130 561,-130 561,-134 549,-134 549,-94 912,-94 912,-130"/>
<polyline fill="none" stroke="#949494" points="549,-130 561,-130"/>
<text text-anchor="middle" x="730" y="-107" font-family="Courier New" font-size="14.00">github.com/codemityio/goforma/pkg/code/doc</text>
</g>
<!-- github.com/codemityio/goforma/pkg/code/gen -->
<g id="node2" class="node">
<title>github.com/codemityio/goforma/pkg/code/gen</title>
<polygon fill="#fcfcfc" stroke="#949494" points="686,-318 335,-318 335,-322 323,-322 323,-282 686,-282 686,-318"/>
<polyline fill="none" stroke="#949494" points="323,-318 335,-318"/>
<text text-anchor="middle" x="504" y="-295" font-family="Courier New" font-size="14.00">github.com/codemityio/goforma/pkg/code/gen</text>
</g>
<!-- github.com/codemityio/goforma/pkg/code/imports -->
<g id="node3" class="node">
<title>github.com/codemityio/goforma/pkg/code/imports</title>
<polygon fill="#fcfcfc" stroke="#949494" points="456,-224 73,-224 73,-228 61,-228 61,-188 456,-188 456,-224"/>
<polyline fill="none" stroke="#949494" points="61,-224 73,-224"/>
<text text-anchor="middle" x="258" y="-201" font-family="Courier New" font-size="14.00">github.com/codemityio/goforma/pkg/code/imports</text>
</g>
<!-- github.com/codemityio/goforma/pkg/code/gen&#45;&gt;github.com/codemityio/goforma/pkg/code/imports -->
<g id="edge1" class="edge">
<title>github.com/codemityio/goforma/pkg/code/gen&#45;&gt;github.com/codemityio/goforma/pkg/code/imports</title>
<path fill="none" stroke="#a8a8a8" d="M390,-282C390,-282 390,-232 390,-232"/>
<polygon fill="#a8a8a8" stroke="#a8a8a8" points="392,-232 390,-226 387,-232 392,-232"/>
</g>
<!-- github.com/codemityio/goforma/pkg/code/parser -->
<g id="node4" class="node">
<title>github.com/codemityio/goforma/pkg/code/parser</title>
<polygon fill="#fcfcfc" stroke="#949494" points="944,-224 569,-224 569,-228 557,-228 557,-188 944,-188 944,-224"/>
<polyline fill="none" stroke="#949494" points="557,-224 569,-224"/>
<text text-anchor="middle" x="750" y="-201" font-family="Courier New" font-size="14.00">github.com/codemityio/goforma/pkg/code/parser</text>
</g>
<!-- github.com/codemityio/goforma/pkg/code/gen&#45;&gt;github.com/codemityio/goforma/pkg/code/parser -->
<g id="edge2" class="edge">
<title>github.com/codemityio/goforma/pkg/code/gen&#45;&gt;github.com/codemityio/goforma/pkg/code/parser</title>
<path fill="none" stroke="#a8a8a8" d="M621,-282C621,-282 621,-232 621,-232"/>
<polygon fill="#a8a8a8" stroke="#a8a8a8" points="623,-232 621,-226 619,-232 623,-232"/>
</g>
<!-- golang.org/x/tools/go/packages -->
<g id="node5" class="node">
<title>golang.org/x/tools/go/packages</title>
<polygon fill="#d4d4d4" stroke="#a6a6a6" points="429,-130 178,-130 178,-134 166,-134 166,-94 429,-94 429,-130"/>
<polyline fill="none" stroke="#a6a6a6" points="166,-130 178,-130"/>
<text text-anchor="middle" x="297" y="-107" font-family="Courier New" font-size="14.00">golang.org/x/tools/go/packages</text>
</g>
<!-- github.com/codemityio/goforma/pkg/code/imports&#45;&gt;golang.org/x/tools/go/packages -->
<g id="edge3" class="edge">
<title>github.com/codemityio/goforma/pkg/code/imports&#45;&gt;golang.org/x/tools/go/packages</title>
<path fill="none" stroke="#a8a8a8" d="M297,-188C297,-188 297,-138 297,-138"/>
<polygon fill="#a8a8a8" stroke="#a8a8a8" points="299,-138 297,-132 295,-138 299,-138"/>
</g>
<!-- github.com/codemityio/goforma/pkg/code/parser&#45;&gt;github.com/codemityio/goforma/pkg/code/doc -->
<g id="edge4" class="edge">
<title>github.com/codemityio/goforma/pkg/code/parser&#45;&gt;github.com/codemityio/goforma/pkg/code/doc</title>
<path fill="none" stroke="#a8a8a8" d="M734,-188C734,-188 734,-138 734,-138"/>
<polygon fill="#a8a8a8" stroke="#a8a8a8" points="736,-138 734,-132 732,-138 736,-138"/>
</g>
<!-- github.com/codemityio/goforma/pkg/code/parser&#45;&gt;golang.org/x/tools/go/packages -->
<g id="edge5" class="edge">
<title>github.com/codemityio/goforma/pkg/code/parser&#45;&gt;golang.org/x/tools/go/packages</title>
<path fill="none" stroke="#a8a8a8" d="M556,-206C525,-206 503,-206 503,-206 503,-206 503,-112 503,-112 503,-112 437,-112 437,-112"/>
<polygon fill="#a8a8a8" stroke="#a8a8a8" points="437,-110 431,-112 437,-114 437,-110"/>
</g>
<!-- golang.org/x/sync/errgroup -->
<g id="node6" class="node">
<title>golang.org/x/sync/errgroup</title>
<polygon fill="#d4d4d4" stroke="#a6a6a6" points="231,-36 12,-36 12,-40 0,-40 0,0 231,0 231,-36"/>
<polyline fill="none" stroke="#a6a6a6" points="0,-36 12,-36"/>
<text text-anchor="middle" x="115" y="-13" font-family="Courier New" font-size="14.00">golang.org/x/sync/errgroup</text>
</g>
<!-- golang.org/x/tools/go/packages&#45;&gt;golang.org/x/sync/errgroup -->
<g id="edge6" class="edge">
<title>golang.org/x/tools/go/packages&#45;&gt;golang.org/x/sync/errgroup</title>
<path fill="none" stroke="#a8a8a8" d="M198,-94C198,-94 198,-44 198,-44"/>
<polygon fill="#a8a8a8" stroke="#a8a8a8" points="200,-44 198,-38 196,-44 200,-44"/>
</g>
<!-- golang.org/x/tools/go/gcexportdata -->
<g id="node7" class="node">
<title>golang.org/x/tools/go/gcexportdata</title>
<polygon fill="#d4d4d4" stroke="#a6a6a6" points="629,-36 344,-36 344,-40 332,-40 332,0 629,0 629,-36"/>
<polyline fill="none" stroke="#a6a6a6" points="332,-36 344,-36"/>
<text text-anchor="middle" x="480" y="-13" font-family="Courier New" font-size="14.00">golang.org/x/tools/go/gcexportdata</text>
</g>
<!-- golang.org/x/tools/go/packages&#45;&gt;golang.org/x/tools/go/gcexportdata -->
<g id="edge7" class="edge">
<title>golang.org/x/tools/go/packages&#45;&gt;golang.org/x/tools/go/gcexportdata</title>
<path fill="none" stroke="#a8a8a8" d="M381,-94C381,-94 381,-44 381,-44"/>
<polygon fill="#a8a8a8" stroke="#a8a8a8" points="383,-44 381,-38 378,-44 383,-44"/>
</g>
</g>
</svg>
