<?xml version="1.0" encoding="UTF-8" standalone="no"?>
<!DOCTYPE svg PUBLIC "-//W3C//DTD SVG 1.1//EN"
 "http://www.w3.org/Graphics/SVG/1.1/DTD/svg11.dtd">
<!-- Generated by graphviz version 12.2.1 (20241206.2353)
 -->
<!-- Title: DepGraph Pages: 1 -->
<svg width="2487pt" height="817pt"
 viewBox="0.00 0.00 2487.18 816.80" xmlns="http://www.w3.org/2000/svg" xmlns:xlink="http://www.w3.org/1999/xlink">
<g id="graph0" class="graph" transform="scale(1 1) rotate(0) translate(14.4 802.4)">
<title>DepGraph</title>
<polygon fill="white" stroke="none" points="-14,14 -14,-802 2473,-802 2473,14 -14,14"/>
<!-- github.com/codemityio/goforma/pkg/code/doc -->
<g id="node1" class="node">
<title>github.com/codemityio/goforma/pkg/code/doc</title>
<polygon fill="#fcfcfc" stroke="#949494" points="851,-600 501,-600 501,-604 489,-604 489,-564 851,-564 851,-600"/>
<polyline fill="none" stroke="#949494" points="489,-600 501,-600"/>
<text text-anchor="middle" x="670" y="-577" font-family="Courier New" font-size="14.00">github.com/codemityio/goforma/pkg/code/doc</text>
</g>
<!-- github.com/codemityio/goforma/pkg/code/gen -->
<g id="node2" class="node">
<title>github.com/codemityio/goforma/pkg/code/gen</title>
<polygon fill="#fcfcfc" stroke="#949494" points="625,-788 275,-788 275,-792 263,-792 263,-752 625,-752 625,-788"/>
<polyline fill="none" stroke="#949494" points="263,-788 275,-788"/>
<text text-anchor="middle" x="444" y="-765" font-family="Courier New" font-size="14.00">github.com/codemityio/goforma/pkg/code/gen</text>
</g>
<!-- github.com/codemityio/goforma/pkg/code/imports -->
<g id="node3" class="node">
<title>github.com/codemityio/goforma/pkg/code/imports</title>
<polygon fill="#fcfcfc" stroke="#949494" points="396,-694 12,-694 12,-698 0,-698 0,-658 396,-658 396,-694"/>
<polyline fill="none" stroke="#949494" points="0,-694 12,-694"/>
<text text-anchor="middle" x="198" y="-671" font-family="Courier New" font-size="14.00">github.com/codemityio/goforma/pkg/code/imports</text>
</g>
<!-- github.com/codemityio/goforma/pkg/code/gen&#45;&gt;github.com/codemityio/goforma/pkg/code/imports -->
<g id="edge1" class="edge">
<title>github.com/codemityio/goforma/pkg/code/gen&#45;&gt;github.com/codemityio/goforma/pkg/code/imports</title>
<path fill="none" stroke="#a8a8a8" d="M329,-752C329,-752 329,-702 329,-702"/>
<polygon fill="#a8a8a8" stroke="#a8a8a8" points="331,-702 329,-696 327,-702 331,-702"/>
</g>
<!-- github.com/codemityio/goforma/pkg/code/parser -->
<g id="node4" class="node">
<title>github.com/codemityio/goforma/pkg/code/parser</title>
<polygon fill="#fcfcfc" stroke="#949494" points="883,-694 508,-694 508,-698 496,-698 496,-658 883,-658 883,-694"/>
<polyline fill="none" stroke="#949494" points="496,-694 508,-694"/>
<text text-anchor="middle" x="690" y="-671" font-family="Courier New" font-size="14.00">github.com/codemityio/goforma/pkg/code/parser</text>
</g>
<!-- github.com/codemityio/goforma/pkg/code/gen&#45;&gt;github.com/codemityio/goforma/pkg/code/parser -->
<g id="edge2" class="edge">
<title>github.com/codemityio/goforma/pkg/code/gen&#45;&gt;github.com/codemityio/goforma/pkg/code/parser</title>
<path fill="none" stroke="#a8a8a8" d="M561,-752C561,-752 561,-702 561,-702"/>
<polygon fill="#a8a8a8" stroke="#a8a8a8" points="563,-702 561,-696 558,-702 563,-702"/>
</g>
<!-- golang.org/x/tools/go/packages -->
<g id="node5" class="node">
<title>golang.org/x/tools/go/packages</title>
<polygon fill="#d4d4d4" stroke="#a6a6a6" points="369,-600 117,-600 117,-604 105,-604 105,-564 369,-564 369,-600"/>
<polyline fill="none" stroke="#a6a6a6" points="105,-600 117,-600"/>
<text text-anchor="middle" x="237" y="-577" font-family="Courier New" font-size="14.00">golang.org/x/tools/go/packages</text>
</g>
<!-- github.com/codemityio/goforma/pkg/code/imports&#45;&gt;golang.org/x/tools/go/packages -->
<g id="edge3" class="edge">
<title>github.com/codemityio/goforma/pkg/code/imports&#45;&gt;golang.org/x/tools/go/packages</title>
<path fill="none" stroke="#a8a8a8" d="M237,-658C237,-658 237,-608 237,-608"/>
<polygon fill="#a8a8a8" stroke="#a8a8a8" points="239,-608 237,-602 235,-608 239,-608"/>
</g>
<!-- github.com/codemityio/goforma/pkg/code/parser&#45;&gt;github.com/codemityio/goforma/pkg/code/doc -->
<g id="edge4" class="edge">
<title>github.com/codemityio/goforma/pkg/code/parser&#45;&gt;github.com/codemityio/goforma/pkg/code/doc</title>
<path fill="none" stroke="#a8a8a8" d="M674,-658C674,-658 674,-608 674,-608"/>
<polygon fill="#a8a8a8" stroke="#a8a8a8" points="676,-608 674,-602 671,-608 676,-608"/>
</g>
<!-- github.com/codemityio/goforma/pkg/code/parser&#45;&gt;golang.org/x/tools/go/packages -->
<g id="edge5" class="edge">
<title>github.com/codemityio/goforma/pkg/code/parser&#45;&gt;golang.org/x/tools/go/packages</title>
<path fill="none" stroke="#a8a8a8" d="M496,-676C487,-676 481,-676 481,-676 481,-676 481,-588 481,-588 481,-588 376,-588 376,-588"/>
<polygon fill="#a8a8a8" stroke="#a8a8a8" points="376,-586 370,-588 376,-590 376,-586"/>
</g>
<!-- golang.org/x/sync/errgroup -->
<g id="node7" class="node">
<title>golang.org/x/sync/errgroup</title>
<polygon fill="#d4d4d4" stroke="#a6a6a6" points="305,-224 87,-224 87,-228 75,-228 75,-188 305,-188 305,-224"/>
<polyline fill="none" stroke="#a6a6a6" points="75,-224 87,-224"/>
<text text-anchor="middle" x="190" y="-201" font-family="Courier New" font-size="14.00">golang.org/x/sync/errgroup</text>
</g>
<!-- golang.org/x/tools/go/packages&#45;&gt;golang.org/x/sync/errgroup -->
<g id="edge8" class="edge">
<title>golang.org/x/tools/go/packages&#45;&gt;golang.org/x/sync/errgroup</title>
<path fill="none" stroke="#a8a8a8" d="M205,-564C205,-564 205,-232 205,-232"/>
<polygon fill="#a8a8a8" stroke="#a8a8a8" points="207,-232 205,-226 203,-232 207,-232"/>
</g>
<!-- golang.org/x/tools/go/gcexportdata -->
<g id="node10" class="node">
<title>golang.org/x/tools/go/gcexportdata</title>
<polygon fill="#d4d4d4" stroke="#a6a6a6" points="1043,-506 759,-506 759,-510 747,-510 747,-470 1043,-470 1043,-506"/>
<polyline fill="none" stroke="#a6a6a6" points="747,-506 759,-506"/>
<text text-anchor="middle" x="895" y="-483" font-family="Courier New" font-size="14.00">golang.org/x/tools/go/gcexportdata</text>
</g>
<!-- golang.org/x/tools/go/packages&#45;&gt;golang.org/x/tools/go/gcexportdata -->
<g id="edge9" class="edge">
<title>golang.org/x/tools/go/packages&#45;&gt;golang.org/x/tools/go/gcexportdata</title>
<path fill="none" stroke="#a8a8a8" d="M358,-564C358,-537 358,-488 358,-488 358,-488 739,-488 739,-488"/>
<polygon fill="#a8a8a8" stroke="#a8a8a8" points="739,-490 745,-488 739,-486 739,-490"/>
</g>
<!-- golang.org/x/tools/internal/gocommand -->
<g id="node12" class="node">
<title>golang.org/x/tools/internal/gocommand</title>
<polygon fill="#d4d4d4" stroke="#a6a6a6" points="1516,-506 1281,-506 1281,-510 1269,-510 1269,-470 1516,-470 1516,-506"/>
<polyline fill="none" stroke="#a6a6a6" points="1269,-506 1281,-506"/>
<text text-anchor="middle" x="1393" y="-483" font-family="Courier New" font-size="14.00">golang.org/x/tools/gocommand</text>
</g>
<!-- golang.org/x/tools/go/packages&#45;&gt;golang.org/x/tools/internal/gocommand -->
<g id="edge10" class="edge">
<title>golang.org/x/tools/go/packages&#45;&gt;golang.org/x/tools/internal/gocommand</title>
<path fill="none" stroke="#a8a8a8" d="M348,-564C348,-551 348,-535 348,-535 348,-535 1393,-535 1393,-535 1393,-535 1393,-514 1393,-514"/>
<polygon fill="#a8a8a8" stroke="#a8a8a8" points="1395,-514 1393,-508 1391,-514 1395,-514"/>
</g>
<!-- golang.org/x/tools/internal/packagesinternal -->
<g id="node13" class="node">
<title>golang.org/x/tools/internal/packagesinternal</title>
<polygon fill="#d4d4d4" stroke="#a6a6a6" points="1876,-36 1583,-36 1583,-40 1571,-40 1571,0 1876,0 1876,-36"/>
<polyline fill="none" stroke="#a6a6a6" points="1571,-36 1583,-36"/>
<text text-anchor="middle" x="1724" y="-13" font-family="Courier New" font-size="14.00">golang.org/x/tools/packagesinternal</text>
</g>
<!-- golang.org/x/tools/go/packages&#45;&gt;golang.org/x/tools/internal/packagesinternal -->
<g id="edge11" class="edge">
<title>golang.org/x/tools/go/packages&#45;&gt;golang.org/x/tools/internal/packagesinternal</title>
<path fill="none" stroke="#a8a8a8" d="M338,-564C338,-525 338,-441 338,-441 338,-441 1621,-441 1621,-441 1621,-441 1621,-44 1621,-44"/>
<polygon fill="#a8a8a8" stroke="#a8a8a8" points="1623,-44 1621,-38 1619,-44 1623,-44"/>
</g>
<!-- golang.org/x/tools/internal/typesinternal -->
<g id="node14" class="node">
<title>golang.org/x/tools/internal/typesinternal</title>
<polygon fill="#d4d4d4" stroke="#a6a6a6" points="746,-224 478,-224 478,-228 466,-228 466,-188 746,-188 746,-224"/>
<polyline fill="none" stroke="#a6a6a6" points="466,-224 478,-224"/>
<text text-anchor="middle" x="606" y="-201" font-family="Courier New" font-size="14.00">golang.org/x/tools/typesinternal</text>
</g>
<!-- golang.org/x/tools/go/packages&#45;&gt;golang.org/x/tools/internal/typesinternal -->
<g id="edge12" class="edge">
<title>golang.org/x/tools/go/packages&#45;&gt;golang.org/x/tools/internal/typesinternal</title>
<path fill="none" stroke="#a8a8a8" d="M369,-576C423,-576 473,-576 473,-576 473,-576 473,-232 473,-232"/>
<polygon fill="#a8a8a8" stroke="#a8a8a8" points="475,-232 473,-226 471,-232 475,-232"/>
</g>
<!-- golang.org/x/mod/semver -->
<g id="node6" class="node">
<title>golang.org/x/mod/semver</title>
<polygon fill="#d4d4d4" stroke="#a6a6a6" points="1093,-412 899,-412 899,-416 887,-416 887,-376 1093,-376 1093,-412"/>
<polyline fill="none" stroke="#a6a6a6" points="887,-412 899,-412"/>
<text text-anchor="middle" x="990" y="-389" font-family="Courier New" font-size="14.00">golang.org/x/mod/semver</text>
</g>
<!-- golang.org/x/tools/go/ast/edge -->
<g id="node8" class="node">
<title>golang.org/x/tools/go/ast/edge</title>
<polygon fill="#d4d4d4" stroke="#a6a6a6" points="932,-36 680,-36 680,-40 668,-40 668,0 932,0 932,-36"/>
<polyline fill="none" stroke="#a6a6a6" points="668,-36 680,-36"/>
<text text-anchor="middle" x="800" y="-13" font-family="Courier New" font-size="14.00">golang.org/x/tools/go/ast/edge</text>
</g>
<!-- golang.org/x/tools/go/ast/inspector -->
<g id="node9" class="node">
<title>golang.org/x/tools/go/ast/inspector</title>
<polygon fill="#d4d4d4" stroke="#a6a6a6" points="940,-130 647,-130 647,-134 635,-134 635,-94 940,-94 940,-130"/>
<polyline fill="none" stroke="#a6a6a6" points="635,-130 647,-130"/>
<text text-anchor="middle" x="788" y="-107" font-family="Courier New" font-size="14.00">golang.org/x/tools/go/ast/inspector</text>
</g>
<!-- golang.org/x/tools/go/ast/inspector&#45;&gt;golang.org/x/tools/go/ast/edge -->
<g id="edge6" class="edge">
<title>golang.org/x/tools/go/ast/inspector&#45;&gt;golang.org/x/tools/go/ast/edge</title>
<path fill="none" stroke="#a8a8a8" d="M800,-94C800,-94 800,-44 800,-44"/>
<polygon fill="#a8a8a8" stroke="#a8a8a8" points="802,-44 800,-38 798,-44 802,-44"/>
</g>
<!-- golang.org/x/tools/internal/gcimporter -->
<g id="node11" class="node">
<title>golang.org/x/tools/internal/gcimporter</title>
<polygon fill="#d4d4d4" stroke="#a6a6a6" points="763,-412 520,-412 520,-416 508,-416 508,-376 763,-376 763,-412"/>
<polyline fill="none" stroke="#a6a6a6" points="508,-412 520,-412"/>
<text text-anchor="middle" x="636" y="-389" font-family="Courier New" font-size="14.00">golang.org/x/tools/gcimporter</text>
</g>
<!-- golang.org/x/tools/go/gcexportdata&#45;&gt;golang.org/x/tools/internal/gcimporter -->
<g id="edge7" class="edge">
<title>golang.org/x/tools/go/gcexportdata&#45;&gt;golang.org/x/tools/internal/gcimporter</title>
<path fill="none" stroke="#a8a8a8" d="M755,-470C755,-470 755,-420 755,-420"/>
<polygon fill="#a8a8a8" stroke="#a8a8a8" points="757,-420 755,-414 753,-420 757,-420"/>
</g>
<!-- golang.org/x/tools/internal/gcimporter&#45;&gt;golang.org/x/tools/internal/typesinternal -->
<g id="edge24" class="edge">
<title>golang.org/x/tools/internal/gcimporter&#45;&gt;golang.org/x/tools/internal/typesinternal</title>
<path fill="none" stroke="#a8a8a8" d="M569,-376C569,-376 569,-232 569,-232"/>
<polygon fill="#a8a8a8" stroke="#a8a8a8" points="571,-232 569,-226 566,-232 571,-232"/>
</g>
<!-- golang.org/x/tools/go/types/objectpath -->
<g id="node15" class="node">
<title>golang.org/x/tools/go/types/objectpath</title>
<polygon fill="#d4d4d4" stroke="#a6a6a6" points="959,-318 641,-318 641,-322 629,-322 629,-282 959,-282 959,-318"/>
<polyline fill="none" stroke="#a6a6a6" points="629,-318 641,-318"/>
<text text-anchor="middle" x="794" y="-295" font-family="Courier New" font-size="14.00">golang.org/x/tools/go/types/objectpath</text>
</g>
<!-- golang.org/x/tools/internal/gcimporter&#45;&gt;golang.org/x/tools/go/types/objectpath -->
<g id="edge21" class="edge">
<title>golang.org/x/tools/internal/gcimporter&#45;&gt;golang.org/x/tools/go/types/objectpath</title>
<path fill="none" stroke="#a8a8a8" d="M663,-376C663,-376 663,-326 663,-326"/>
<polygon fill="#a8a8a8" stroke="#a8a8a8" points="665,-326 663,-320 660,-326 665,-326"/>
</g>
<!-- golang.org/x/tools/internal/aliases -->
<g id="node18" class="node">
<title>golang.org/x/tools/internal/aliases</title>
<polygon fill="#d4d4d4" stroke="#a6a6a6" points="1138,-224 920,-224 920,-228 908,-228 908,-188 1138,-188 1138,-224"/>
<polyline fill="none" stroke="#a6a6a6" points="908,-224 920,-224"/>
<text text-anchor="middle" x="1023" y="-201" font-family="Courier New" font-size="14.00">golang.org/x/tools/aliases</text>
</g>
<!-- golang.org/x/tools/internal/gcimporter&#45;&gt;golang.org/x/tools/internal/aliases -->
<g id="edge22" class="edge">
<title>golang.org/x/tools/internal/gcimporter&#45;&gt;golang.org/x/tools/internal/aliases</title>
<path fill="none" stroke="#a8a8a8" d="M696,-376C696,-359 696,-337 696,-337 696,-337 1026,-337 1026,-337 1026,-337 1026,-232 1026,-232"/>
<polygon fill="#a8a8a8" stroke="#a8a8a8" points="1028,-232 1026,-226 1023,-232 1028,-232"/>
</g>
<!-- golang.org/x/tools/internal/pkgbits -->
<g id="node23" class="node">
<title>golang.org/x/tools/internal/pkgbits</title>
<polygon fill="#d4d4d4" stroke="#a6a6a6" points="1493,-318 1275,-318 1275,-322 1263,-322 1263,-282 1493,-282 1493,-318"/>
<polyline fill="none" stroke="#a6a6a6" points="1263,-318 1275,-318"/>
<text text-anchor="middle" x="1378" y="-295" font-family="Courier New" font-size="14.00">golang.org/x/tools/pkgbits</text>
</g>
<!-- golang.org/x/tools/internal/gcimporter&#45;&gt;golang.org/x/tools/internal/pkgbits -->
<g id="edge23" class="edge">
<title>golang.org/x/tools/internal/gcimporter&#45;&gt;golang.org/x/tools/internal/pkgbits</title>
<path fill="none" stroke="#a8a8a8" d="M730,-376C730,-366 730,-357 730,-357 730,-357 1381,-357 1381,-357 1381,-357 1381,-326 1381,-326"/>
<polygon fill="#a8a8a8" stroke="#a8a8a8" points="1383,-326 1381,-320 1379,-326 1383,-326"/>
</g>
<!-- golang.org/x/tools/internal/gocommand&#45;&gt;golang.org/x/mod/semver -->
<g id="edge25" class="edge">
<title>golang.org/x/tools/internal/gocommand&#45;&gt;golang.org/x/mod/semver</title>
<path fill="none" stroke="#a8a8a8" d="M1269,-488C1177,-488 1068,-488 1068,-488 1068,-488 1068,-420 1068,-420"/>
<polygon fill="#a8a8a8" stroke="#a8a8a8" points="1070,-420 1068,-414 1066,-420 1070,-420"/>
</g>
<!-- golang.org/x/tools/internal/event -->
<g id="node19" class="node">
<title>golang.org/x/tools/internal/event</title>
<polygon fill="#d4d4d4" stroke="#a6a6a6" points="2021,-412 1819,-412 1819,-416 1807,-416 1807,-376 2021,-376 2021,-412"/>
<polyline fill="none" stroke="#a6a6a6" points="1807,-412 1819,-412"/>
<text text-anchor="middle" x="1914" y="-389" font-family="Courier New" font-size="14.00">golang.org/x/tools/event</text>
</g>
<!-- golang.org/x/tools/internal/gocommand&#45;&gt;golang.org/x/tools/internal/event -->
<g id="edge26" class="edge">
<title>golang.org/x/tools/internal/gocommand&#45;&gt;golang.org/x/tools/internal/event</title>
<path fill="none" stroke="#a8a8a8" d="M1509,-470C1509,-444 1509,-400 1509,-400 1509,-400 1799,-400 1799,-400"/>
<polygon fill="#a8a8a8" stroke="#a8a8a8" points="1799,-402 1805,-400 1799,-398 1799,-402"/>
</g>
<!-- golang.org/x/tools/internal/event/keys -->
<g id="node21" class="node">
<title>golang.org/x/tools/internal/event/keys</title>
<polygon fill="#d4d4d4" stroke="#a6a6a6" points="1525,-224 1282,-224 1282,-228 1270,-228 1270,-188 1525,-188 1525,-224"/>
<polyline fill="none" stroke="#a6a6a6" points="1270,-224 1282,-224"/>
<text text-anchor="middle" x="1398" y="-201" font-family="Courier New" font-size="14.00">golang.org/x/tools/event/keys</text>
</g>
<!-- golang.org/x/tools/internal/gocommand&#45;&gt;golang.org/x/tools/internal/event/keys -->
<g id="edge27" class="edge">
<title>golang.org/x/tools/internal/gocommand&#45;&gt;golang.org/x/tools/internal/event/keys</title>
<path fill="none" stroke="#a8a8a8" d="M1501,-470C1501,-470 1501,-232 1501,-232"/>
<polygon fill="#a8a8a8" stroke="#a8a8a8" points="1503,-232 1501,-226 1499,-232 1503,-232"/>
</g>
<!-- golang.org/x/tools/internal/event/label -->
<g id="node22" class="node">
<title>golang.org/x/tools/internal/event/label</title>
<polygon fill="#d4d4d4" stroke="#a6a6a6" points="1935,-130 1683,-130 1683,-134 1671,-134 1671,-94 1935,-94 1935,-130"/>
<polyline fill="none" stroke="#a6a6a6" points="1671,-130 1683,-130"/>
<text text-anchor="middle" x="1803" y="-107" font-family="Courier New" font-size="14.00">golang.org/x/tools/event/label</text>
</g>
<!-- golang.org/x/tools/internal/gocommand&#45;&gt;golang.org/x/tools/internal/event/label -->
<g id="edge28" class="edge">
<title>golang.org/x/tools/internal/gocommand&#45;&gt;golang.org/x/tools/internal/event/label</title>
<path fill="none" stroke="#a8a8a8" d="M1517,-488C1616,-488 1739,-488 1739,-488 1739,-488 1739,-138 1739,-138"/>
<polygon fill="#a8a8a8" stroke="#a8a8a8" points="1741,-138 1739,-132 1737,-138 1741,-138"/>
</g>
<!-- golang.org/x/tools/internal/typesinternal&#45;&gt;golang.org/x/tools/go/ast/inspector -->
<g id="edge29" class="edge">
<title>golang.org/x/tools/internal/typesinternal&#45;&gt;golang.org/x/tools/go/ast/inspector</title>
<path fill="none" stroke="#a8a8a8" d="M672,-188C672,-188 672,-138 672,-138"/>
<polygon fill="#a8a8a8" stroke="#a8a8a8" points="674,-138 672,-132 670,-138 674,-138"/>
</g>
<!-- golang.org/x/tools/go/types/typeutil -->
<g id="node16" class="node">
<title>golang.org/x/tools/go/types/typeutil</title>
<polygon fill="#d4d4d4" stroke="#a6a6a6" points="1498,-130 1197,-130 1197,-134 1185,-134 1185,-94 1498,-94 1498,-130"/>
<polyline fill="none" stroke="#a6a6a6" points="1185,-130 1197,-130"/>
<text text-anchor="middle" x="1342" y="-107" font-family="Courier New" font-size="14.00">golang.org/x/tools/go/types/typeutil</text>
</g>
<!-- golang.org/x/tools/internal/typesinternal&#45;&gt;golang.org/x/tools/go/types/typeutil -->
<g id="edge30" class="edge">
<title>golang.org/x/tools/internal/typesinternal&#45;&gt;golang.org/x/tools/go/types/typeutil</title>
<path fill="none" stroke="#a8a8a8" d="M709,-188C709,-175 709,-159 709,-159 709,-159 1224,-159 1224,-159 1224,-159 1224,-138 1224,-138"/>
<polygon fill="#a8a8a8" stroke="#a8a8a8" points="1226,-138 1224,-132 1222,-138 1226,-138"/>
</g>
<!-- golang.org/x/tools/internal/stdlib -->
<g id="node24" class="node">
<title>golang.org/x/tools/internal/stdlib</title>
<polygon fill="#d4d4d4" stroke="#a6a6a6" points="308,-130 98,-130 98,-134 86,-134 86,-94 308,-94 308,-130"/>
<polyline fill="none" stroke="#a6a6a6" points="86,-130 98,-130"/>
<text text-anchor="middle" x="197" y="-107" font-family="Courier New" font-size="14.00">golang.org/x/tools/stdlib</text>
</g>
<!-- golang.org/x/tools/internal/typesinternal&#45;&gt;golang.org/x/tools/internal/stdlib -->
<g id="edge31" class="edge">
<title>golang.org/x/tools/internal/typesinternal&#45;&gt;golang.org/x/tools/internal/stdlib</title>
<path fill="none" stroke="#a8a8a8" d="M500,-188C500,-161 500,-112 500,-112 500,-112 316,-112 316,-112"/>
<polygon fill="#a8a8a8" stroke="#a8a8a8" points="316,-110 310,-112 316,-114 316,-110"/>
</g>
<!-- golang.org/x/tools/internal/versions -->
<g id="node25" class="node">
<title>golang.org/x/tools/internal/versions</title>
<polygon fill="#d4d4d4" stroke="#a6a6a6" points="567,-36 340,-36 340,-40 328,-40 328,0 567,0 567,-36"/>
<polyline fill="none" stroke="#a6a6a6" points="328,-36 340,-36"/>
<text text-anchor="middle" x="448" y="-13" font-family="Courier New" font-size="14.00">golang.org/x/tools/versions</text>
</g>
<!-- golang.org/x/tools/internal/typesinternal&#45;&gt;golang.org/x/tools/internal/versions -->
<g id="edge32" class="edge">
<title>golang.org/x/tools/internal/typesinternal&#45;&gt;golang.org/x/tools/internal/versions</title>
<path fill="none" stroke="#a8a8a8" d="M533,-188C533,-188 533,-44 533,-44"/>
<polygon fill="#a8a8a8" stroke="#a8a8a8" points="535,-44 533,-38 531,-44 535,-44"/>
</g>
<!-- golang.org/x/tools/go/types/objectpath&#45;&gt;golang.org/x/tools/internal/typesinternal -->
<g id="edge13" class="edge">
<title>golang.org/x/tools/go/types/objectpath&#45;&gt;golang.org/x/tools/internal/typesinternal</title>
<path fill="none" stroke="#a8a8a8" d="M687,-282C687,-282 687,-232 687,-232"/>
<polygon fill="#a8a8a8" stroke="#a8a8a8" points="689,-232 687,-226 685,-232 689,-232"/>
</g>
<!-- golang.org/x/tools/internal/typeparams -->
<g id="node17" class="node">
<title>golang.org/x/tools/internal/typeparams</title>
<polygon fill="#d4d4d4" stroke="#a6a6a6" points="1312,-36 1069,-36 1069,-40 1057,-40 1057,0 1312,0 1312,-36"/>
<polyline fill="none" stroke="#a6a6a6" points="1057,-36 1069,-36"/>
<text text-anchor="middle" x="1185" y="-13" font-family="Courier New" font-size="14.00">golang.org/x/tools/typeparams</text>
</g>
<!-- golang.org/x/tools/go/types/typeutil&#45;&gt;golang.org/x/tools/internal/typeparams -->
<g id="edge14" class="edge">
<title>golang.org/x/tools/go/types/typeutil&#45;&gt;golang.org/x/tools/internal/typeparams</title>
<path fill="none" stroke="#a8a8a8" d="M1249,-94C1249,-94 1249,-44 1249,-44"/>
<polygon fill="#a8a8a8" stroke="#a8a8a8" points="1251,-44 1249,-38 1247,-44 1251,-44"/>
</g>
<!-- golang.org/x/tools/internal/event/core -->
<g id="node20" class="node">
<title>golang.org/x/tools/internal/event/core</title>
<polygon fill="#d4d4d4" stroke="#a6a6a6" points="2458,-318 2215,-318 2215,-322 2203,-322 2203,-282 2458,-282 2458,-318"/>
<polyline fill="none" stroke="#a6a6a6" points="2203,-318 2215,-318"/>
<text text-anchor="middle" x="2331" y="-295" font-family="Courier New" font-size="14.00">golang.org/x/tools/event/core</text>
</g>
<!-- golang.org/x/tools/internal/event&#45;&gt;golang.org/x/tools/internal/event/core -->
<g id="edge15" class="edge">
<title>golang.org/x/tools/internal/event&#45;&gt;golang.org/x/tools/internal/event/core</title>
<path fill="none" stroke="#a8a8a8" d="M1978,-376C1978,-351 1978,-309 1978,-309 1978,-309 2195,-309 2195,-309"/>
<polygon fill="#a8a8a8" stroke="#a8a8a8" points="2195,-311 2201,-309 2195,-307 2195,-311"/>
</g>
<!-- golang.org/x/tools/internal/event&#45;&gt;golang.org/x/tools/internal/event/keys -->
<g id="edge16" class="edge">
<title>golang.org/x/tools/internal/event&#45;&gt;golang.org/x/tools/internal/event/keys</title>
<path fill="none" stroke="#a8a8a8" d="M1806,-388C1690,-388 1519,-388 1519,-388 1519,-388 1519,-232 1519,-232"/>
<polygon fill="#a8a8a8" stroke="#a8a8a8" points="1521,-232 1519,-226 1517,-232 1521,-232"/>
</g>
<!-- golang.org/x/tools/internal/event&#45;&gt;golang.org/x/tools/internal/event/label -->
<g id="edge17" class="edge">
<title>golang.org/x/tools/internal/event&#45;&gt;golang.org/x/tools/internal/event/label</title>
<path fill="none" stroke="#a8a8a8" d="M1849,-376C1849,-376 1849,-138 1849,-138"/>
<polygon fill="#a8a8a8" stroke="#a8a8a8" points="1851,-138 1849,-132 1847,-138 1851,-138"/>
</g>
<!-- golang.org/x/tools/internal/event/core&#45;&gt;golang.org/x/tools/internal/event/keys -->
<g id="edge18" class="edge">
<title>golang.org/x/tools/internal/event/core&#45;&gt;golang.org/x/tools/internal/event/keys</title>
<path fill="none" stroke="#a8a8a8" d="M2203,-300C1975,-300 1522,-300 1522,-300 1522,-300 1522,-232 1522,-232"/>
<polygon fill="#a8a8a8" stroke="#a8a8a8" points="1524,-232 1522,-226 1520,-232 1524,-232"/>
</g>
<!-- golang.org/x/tools/internal/event/core&#45;&gt;golang.org/x/tools/internal/event/label -->
<g id="edge19" class="edge">
<title>golang.org/x/tools/internal/event/core&#45;&gt;golang.org/x/tools/internal/event/label</title>
<path fill="none" stroke="#a8a8a8" d="M2203,-291C2073,-291 1892,-291 1892,-291 1892,-291 1892,-138 1892,-138"/>
<polygon fill="#a8a8a8" stroke="#a8a8a8" points="1894,-138 1892,-132 1890,-138 1894,-138"/>
</g>
<!-- golang.org/x/tools/internal/event/keys&#45;&gt;golang.org/x/tools/internal/event/label -->
<g id="edge20" class="edge">
<title>golang.org/x/tools/internal/event/keys&#45;&gt;golang.org/x/tools/internal/event/label</title>
<path fill="none" stroke="#a8a8a8" d="M1512,-188C1512,-161 1512,-112 1512,-112 1512,-112 1663,-112 1663,-112"/>
<polygon fill="#a8a8a8" stroke="#a8a8a8" points="1663,-114 1669,-112 1663,-110 1663,-114"/>
</g>
</g>
</svg>
