<?xml version="1.0" encoding="UTF-8" standalone="no"?>
<!DOCTYPE svg PUBLIC "-//W3C//DTD SVG 1.1//EN"
 "http://www.w3.org/Graphics/SVG/1.1/DTD/svg11.dtd">
<!-- Generated by graphviz version 12.2.1 (20241206.2353)
 -->
<!-- Title: DepGraph Pages: 1 -->
<svg width="2487pt" height="817pt"
 viewBox="0.00 0.00 2487.18 816.80" xmlns="http://www.w3.org/2000/svg" xmlns:xlink="http://www.w3.org/1999/xlink">
<g id="graph0" class="graph" transform="scale(1 1) rotate(0) translate(14.4 802.4)">
<title>DepGraph</title>
<polygon fill="white" stroke="none" points="-14.4,14.4 -14.4,-802.4 2472.78,-802.4 2472.78,14.4 -14.4,14.4"/>
<!-- github.com/codemityio/goforma/pkg/code/doc -->
<g id="node1" class="node">
<title>github.com/codemityio/goforma/pkg/code/doc</title>
<polygon fill="#fcfcfc" stroke="#949494" points="851,-600 500.5,-600 500.5,-604 488.5,-604 488.5,-564 851,-564 851,-600"/>
<polyline fill="none" stroke="#949494" points="488.5,-600 500.5,-600"/>
<text text-anchor="middle" x="669.75" y="-577.33" font-family="Courier New" font-size="14.00">github.com/codemityio/goforma/pkg/code/doc</text>
</g>
<!-- github.com/codemityio/goforma/pkg/code/gen -->
<g id="node2" class="node">
<title>github.com/codemityio/goforma/pkg/code/gen</title>
<polygon fill="#fcfcfc" stroke="#949494" points="625,-788 274.5,-788 274.5,-792 262.5,-792 262.5,-752 625,-752 625,-788"/>
<polyline fill="none" stroke="#949494" points="262.5,-788 274.5,-788"/>
<text text-anchor="middle" x="443.75" y="-765.33" font-family="Courier New" font-size="14.00">github.com/codemityio/goforma/pkg/code/gen</text>
</g>
<!-- github.com/codemityio/goforma/pkg/code/imports -->
<g id="node3" class="node">
<title>github.com/codemityio/goforma/pkg/code/imports</title>
<polygon fill="#fcfcfc" stroke="#949494" points="395.5,-694 12,-694 12,-698 0,-698 0,-658 395.5,-658 395.5,-694"/>
<polyline fill="none" stroke="#949494" points="0,-694 12,-694"/>
<text text-anchor="middle" x="197.75" y="-671.33" font-family="Courier New" font-size="14.00">github.com/codemityio/goforma/pkg/code/imports</text>
</g>
<!-- github.com/codemityio/goforma/pkg/code/gen&#45;&gt;github.com/codemityio/goforma/pkg/code/imports -->
<g id="edge1" class="edge">
<title>github.com/codemityio/goforma/pkg/code/gen&#45;&gt;github.com/codemityio/goforma/pkg/code/imports</title>
<path fill="none" stroke="#a8a8a8" d="M329,-751.88C329,-751.88 329,-701.9 329,-701.9"/>
<polygon fill="#a8a8a8" stroke="#a8a8a8" points="331.1,-701.9 329,-695.9 326.9,-701.9 331.1,-701.9"/>
</g>
<!-- github.com/codemityio/goforma/pkg/code/parser -->
<g id="node4" class="node">
<title>github.com/codemityio/goforma/pkg/code/parser</title>
<polygon fill="#fcfcfc" stroke="#949494" points="883.38,-694 508.12,-694 508.12,-698 496.12,-698 496.12,-658 883.38,-658 883.38,-694"/>
<polyline fill="none" stroke="#949494" points="496.12,-694 508.12,-694"/>
<text text-anchor="middle" x="689.75" y="-671.33" font-family="Courier New" font-size="14.00">github.com/codemityio/goforma/pkg/code/parser</text>
</g>
<!-- github.com/codemityio/goforma/pkg/code/gen&#45;&gt;github.com/codemityio/goforma/pkg/code/parser -->
<g id="edge2" class="edge">
<title>github.com/codemityio/goforma/pkg/code/gen&#45;&gt;github.com/codemityio/goforma/pkg/code/parser</title>
<path fill="none" stroke="#a8a8a8" d="M560.56,-751.88C560.56,-751.88 560.56,-701.9 560.56,-701.9"/>
<polygon fill="#a8a8a8" stroke="#a8a8a8" points="562.66,-701.9 560.56,-695.9 558.46,-701.9 562.66,-701.9"/>
</g>
<!-- golang.org/x/tools/go/packages -->
<g id="node5" class="node">
<title>golang.org/x/tools/go/packages</title>
<polygon fill="#d4d4d4" stroke="#a6a6a6" points="368.5,-600 117,-600 117,-604 105,-604 105,-564 368.5,-564 368.5,-600"/>
<polyline fill="none" stroke="#a6a6a6" points="105,-600 117,-600"/>
<text text-anchor="middle" x="236.75" y="-577.33" font-family="Courier New" font-size="14.00">golang.org/x/tools/go/packages</text>
</g>
<!-- github.com/codemityio/goforma/pkg/code/imports&#45;&gt;golang.org/x/tools/go/packages -->
<g id="edge3" class="edge">
<title>github.com/codemityio/goforma/pkg/code/imports&#45;&gt;golang.org/x/tools/go/packages</title>
<path fill="none" stroke="#a8a8a8" d="M236.75,-657.88C236.75,-657.88 236.75,-607.9 236.75,-607.9"/>
<polygon fill="#a8a8a8" stroke="#a8a8a8" points="238.85,-607.9 236.75,-601.9 234.65,-607.9 238.85,-607.9"/>
</g>
<!-- github.com/codemityio/goforma/pkg/code/parser&#45;&gt;github.com/codemityio/goforma/pkg/code/doc -->
<g id="edge4" class="edge">
<title>github.com/codemityio/goforma/pkg/code/parser&#45;&gt;github.com/codemityio/goforma/pkg/code/doc</title>
<path fill="none" stroke="#a8a8a8" d="M673.56,-657.88C673.56,-657.88 673.56,-607.9 673.56,-607.9"/>
<polygon fill="#a8a8a8" stroke="#a8a8a8" points="675.66,-607.9 673.56,-601.9 671.46,-607.9 675.66,-607.9"/>
</g>
<!-- github.com/codemityio/goforma/pkg/code/parser&#45;&gt;golang.org/x/tools/go/packages -->
<g id="edge5" class="edge">
<title>github.com/codemityio/goforma/pkg/code/parser&#45;&gt;golang.org/x/tools/go/packages</title>
<path fill="none" stroke="#a8a8a8" d="M495.94,-676C486.54,-676 480.92,-676 480.92,-676 480.92,-676 480.92,-588 480.92,-588 480.92,-588 376.35,-588 376.35,-588"/>
<polygon fill="#a8a8a8" stroke="#a8a8a8" points="376.35,-585.9 370.35,-588 376.35,-590.1 376.35,-585.9"/>
</g>
<!-- golang.org/x/sync/errgroup -->
<g id="node7" class="node">
<title>golang.org/x/sync/errgroup</title>
<polygon fill="#d4d4d4" stroke="#a6a6a6" points="305,-224 86.5,-224 86.5,-228 74.5,-228 74.5,-188 305,-188 305,-224"/>
<polyline fill="none" stroke="#a6a6a6" points="74.5,-224 86.5,-224"/>
<text text-anchor="middle" x="189.75" y="-201.32" font-family="Courier New" font-size="14.00">golang.org/x/sync/errgroup</text>
</g>
<!-- golang.org/x/tools/go/packages&#45;&gt;golang.org/x/sync/errgroup -->
<g id="edge8" class="edge">
<title>golang.org/x/tools/go/packages&#45;&gt;golang.org/x/sync/errgroup</title>
<path fill="none" stroke="#a8a8a8" d="M205,-563.61C205,-563.61 205,-231.87 205,-231.87"/>
<polygon fill="#a8a8a8" stroke="#a8a8a8" points="207.1,-231.87 205,-225.87 202.9,-231.87 207.1,-231.87"/>
</g>
<!-- golang.org/x/tools/go/gcexportdata -->
<g id="node10" class="node">
<title>golang.org/x/tools/go/gcexportdata</title>
<polygon fill="#d4d4d4" stroke="#a6a6a6" points="1043,-506 758.5,-506 758.5,-510 746.5,-510 746.5,-470 1043,-470 1043,-506"/>
<polyline fill="none" stroke="#a6a6a6" points="746.5,-506 758.5,-506"/>
<text text-anchor="middle" x="894.75" y="-483.32" font-family="Courier New" font-size="14.00">golang.org/x/tools/go/gcexportdata</text>
</g>
<!-- golang.org/x/tools/go/packages&#45;&gt;golang.org/x/tools/go/gcexportdata -->
<g id="edge9" class="edge">
<title>golang.org/x/tools/go/packages&#45;&gt;golang.org/x/tools/go/gcexportdata</title>
<path fill="none" stroke="#a8a8a8" d="M358.47,-563.88C358.47,-536.56 358.47,-488 358.47,-488 358.47,-488 738.56,-488 738.56,-488"/>
<polygon fill="#a8a8a8" stroke="#a8a8a8" points="738.56,-490.1 744.56,-488 738.56,-485.9 738.56,-490.1"/>
</g>
<!-- golang.org/x/tools/internal/gocommand -->
<g id="node12" class="node">
<title>golang.org/x/tools/internal/gocommand</title>
<polygon fill="#d4d4d4" stroke="#a6a6a6" points="1516.25,-506 1281.25,-506 1281.25,-510 1269.25,-510 1269.25,-470 1516.25,-470 1516.25,-506"/>
<polyline fill="none" stroke="#a6a6a6" points="1269.25,-506 1281.25,-506"/>
<text text-anchor="middle" x="1392.75" y="-483.32" font-family="Courier New" font-size="14.00">golang.org/x/tools/gocommand</text>
</g>
<!-- golang.org/x/tools/go/packages&#45;&gt;golang.org/x/tools/internal/gocommand -->
<g id="edge10" class="edge">
<title>golang.org/x/tools/go/packages&#45;&gt;golang.org/x/tools/internal/gocommand</title>
<path fill="none" stroke="#a8a8a8" d="M348.44,-563.69C348.44,-550.5 348.44,-535 348.44,-535 348.44,-535 1392.75,-535 1392.75,-535 1392.75,-535 1392.75,-513.82 1392.75,-513.82"/>
<polygon fill="#a8a8a8" stroke="#a8a8a8" points="1394.85,-513.82 1392.75,-507.82 1390.65,-513.82 1394.85,-513.82"/>
</g>
<!-- golang.org/x/tools/internal/packagesinternal -->
<g id="node13" class="node">
<title>golang.org/x/tools/internal/packagesinternal</title>
<polygon fill="#d4d4d4" stroke="#a6a6a6" points="1876.12,-36 1583.38,-36 1583.38,-40 1571.38,-40 1571.38,0 1876.12,0 1876.12,-36"/>
<polyline fill="none" stroke="#a6a6a6" points="1571.38,-36 1583.38,-36"/>
<text text-anchor="middle" x="1723.75" y="-13.32" font-family="Courier New" font-size="14.00">golang.org/x/tools/packagesinternal</text>
</g>
<!-- golang.org/x/tools/go/packages&#45;&gt;golang.org/x/tools/internal/packagesinternal -->
<g id="edge11" class="edge">
<title>golang.org/x/tools/go/packages&#45;&gt;golang.org/x/tools/internal/packagesinternal</title>
<path fill="none" stroke="#a8a8a8" d="M338.41,-563.57C338.41,-525.35 338.41,-441 338.41,-441 338.41,-441 1621.19,-441 1621.19,-441 1621.19,-441 1621.19,-43.96 1621.19,-43.96"/>
<polygon fill="#a8a8a8" stroke="#a8a8a8" points="1623.29,-43.96 1621.19,-37.96 1619.09,-43.96 1623.29,-43.96"/>
</g>
<!-- golang.org/x/tools/internal/typesinternal -->
<g id="node14" class="node">
<title>golang.org/x/tools/internal/typesinternal</title>
<polygon fill="#d4d4d4" stroke="#a6a6a6" points="745.75,-224 477.75,-224 477.75,-228 465.75,-228 465.75,-188 745.75,-188 745.75,-224"/>
<polyline fill="none" stroke="#a6a6a6" points="465.75,-224 477.75,-224"/>
<text text-anchor="middle" x="605.75" y="-201.32" font-family="Courier New" font-size="14.00">golang.org/x/tools/typesinternal</text>
</g>
<!-- golang.org/x/tools/go/packages&#45;&gt;golang.org/x/tools/internal/typesinternal -->
<g id="edge12" class="edge">
<title>golang.org/x/tools/go/packages&#45;&gt;golang.org/x/tools/internal/typesinternal</title>
<path fill="none" stroke="#a8a8a8" d="M368.88,-576C423.07,-576 473.33,-576 473.33,-576 473.33,-576 473.33,-231.86 473.33,-231.86"/>
<polygon fill="#a8a8a8" stroke="#a8a8a8" points="475.43,-231.86 473.33,-225.86 471.23,-231.86 475.43,-231.86"/>
</g>
<!-- golang.org/x/mod/semver -->
<g id="node6" class="node">
<title>golang.org/x/mod/semver</title>
<polygon fill="#d4d4d4" stroke="#a6a6a6" points="1092.62,-412 898.88,-412 898.88,-416 886.88,-416 886.88,-376 1092.62,-376 1092.62,-412"/>
<polyline fill="none" stroke="#a6a6a6" points="886.88,-412 898.88,-412"/>
<text text-anchor="middle" x="989.75" y="-389.32" font-family="Courier New" font-size="14.00">golang.org/x/mod/semver</text>
</g>
<!-- golang.org/x/tools/go/ast/edge -->
<g id="node8" class="node">
<title>golang.org/x/tools/go/ast/edge</title>
<polygon fill="#d4d4d4" stroke="#a6a6a6" points="931.5,-36 680,-36 680,-40 668,-40 668,0 931.5,0 931.5,-36"/>
<polyline fill="none" stroke="#a6a6a6" points="668,-36 680,-36"/>
<text text-anchor="middle" x="799.75" y="-13.32" font-family="Courier New" font-size="14.00">golang.org/x/tools/go/ast/edge</text>
</g>
<!-- golang.org/x/tools/go/ast/inspector -->
<g id="node9" class="node">
<title>golang.org/x/tools/go/ast/inspector</title>
<polygon fill="#d4d4d4" stroke="#a6a6a6" points="940.12,-130 647.38,-130 647.38,-134 635.38,-134 635.38,-94 940.12,-94 940.12,-130"/>
<polyline fill="none" stroke="#a6a6a6" points="635.38,-130 647.38,-130"/>
<text text-anchor="middle" x="787.75" y="-107.33" font-family="Courier New" font-size="14.00">golang.org/x/tools/go/ast/inspector</text>
</g>
<!-- golang.org/x/tools/go/ast/inspector&#45;&gt;golang.org/x/tools/go/ast/edge -->
<g id="edge6" class="edge">
<title>golang.org/x/tools/go/ast/inspector&#45;&gt;golang.org/x/tools/go/ast/edge</title>
<path fill="none" stroke="#a8a8a8" d="M799.75,-93.88C799.75,-93.88 799.75,-43.9 799.75,-43.9"/>
<polygon fill="#a8a8a8" stroke="#a8a8a8" points="801.85,-43.9 799.75,-37.9 797.65,-43.9 801.85,-43.9"/>
</g>
<!-- golang.org/x/tools/internal/gcimporter -->
<g id="node11" class="node">
<title>golang.org/x/tools/internal/gcimporter</title>
<polygon fill="#d4d4d4" stroke="#a6a6a6" points="763.38,-412 520.12,-412 520.12,-416 508.12,-416 508.12,-376 763.38,-376 763.38,-412"/>
<polyline fill="none" stroke="#a6a6a6" points="508.12,-412 520.12,-412"/>
<text text-anchor="middle" x="635.75" y="-389.32" font-family="Courier New" font-size="14.00">golang.org/x/tools/gcimporter</text>
</g>
<!-- golang.org/x/tools/go/gcexportdata&#45;&gt;golang.org/x/tools/internal/gcimporter -->
<g id="edge7" class="edge">
<title>golang.org/x/tools/go/gcexportdata&#45;&gt;golang.org/x/tools/internal/gcimporter</title>
<path fill="none" stroke="#a8a8a8" d="M754.94,-469.88C754.94,-469.88 754.94,-419.9 754.94,-419.9"/>
<polygon fill="#a8a8a8" stroke="#a8a8a8" points="757.04,-419.9 754.94,-413.9 752.84,-419.9 757.04,-419.9"/>
</g>
<!-- golang.org/x/tools/internal/gcimporter&#45;&gt;golang.org/x/tools/internal/typesinternal -->
<g id="edge24" class="edge">
<title>golang.org/x/tools/internal/gcimporter&#45;&gt;golang.org/x/tools/internal/typesinternal</title>
<path fill="none" stroke="#a8a8a8" d="M568.56,-375.63C568.56,-375.63 568.56,-231.96 568.56,-231.96"/>
<polygon fill="#a8a8a8" stroke="#a8a8a8" points="570.66,-231.96 568.56,-225.96 566.46,-231.96 570.66,-231.96"/>
</g>
<!-- golang.org/x/tools/go/types/objectpath -->
<g id="node15" class="node">
<title>golang.org/x/tools/go/types/objectpath</title>
<polygon fill="#d4d4d4" stroke="#a6a6a6" points="958.5,-318 641,-318 641,-322 629,-322 629,-282 958.5,-282 958.5,-318"/>
<polyline fill="none" stroke="#a6a6a6" points="629,-318 641,-318"/>
<text text-anchor="middle" x="793.75" y="-295.32" font-family="Courier New" font-size="14.00">golang.org/x/tools/go/types/objectpath</text>
</g>
<!-- golang.org/x/tools/internal/gcimporter&#45;&gt;golang.org/x/tools/go/types/objectpath -->
<g id="edge21" class="edge">
<title>golang.org/x/tools/internal/gcimporter&#45;&gt;golang.org/x/tools/go/types/objectpath</title>
<path fill="none" stroke="#a8a8a8" d="M662.59,-375.88C662.59,-375.88 662.59,-325.9 662.59,-325.9"/>
<polygon fill="#a8a8a8" stroke="#a8a8a8" points="664.69,-325.9 662.59,-319.9 660.49,-325.9 664.69,-325.9"/>
</g>
<!-- golang.org/x/tools/internal/aliases -->
<g id="node18" class="node">
<title>golang.org/x/tools/internal/aliases</title>
<polygon fill="#d4d4d4" stroke="#a6a6a6" points="1138,-224 919.5,-224 919.5,-228 907.5,-228 907.5,-188 1138,-188 1138,-224"/>
<polyline fill="none" stroke="#a6a6a6" points="907.5,-224 919.5,-224"/>
<text text-anchor="middle" x="1022.75" y="-201.32" font-family="Courier New" font-size="14.00">golang.org/x/tools/aliases</text>
</g>
<!-- golang.org/x/tools/internal/gcimporter&#45;&gt;golang.org/x/tools/internal/aliases -->
<g id="edge22" class="edge">
<title>golang.org/x/tools/internal/gcimporter&#45;&gt;golang.org/x/tools/internal/aliases</title>
<path fill="none" stroke="#a8a8a8" d="M696.19,-375.65C696.19,-358.99 696.19,-337 696.19,-337 696.19,-337 1025.56,-337 1025.56,-337 1025.56,-337 1025.56,-232 1025.56,-232"/>
<polygon fill="#a8a8a8" stroke="#a8a8a8" points="1027.66,-232 1025.56,-226 1023.46,-232 1027.66,-232"/>
</g>
<!-- golang.org/x/tools/internal/pkgbits -->
<g id="node23" class="node">
<title>golang.org/x/tools/internal/pkgbits</title>
<polygon fill="#d4d4d4" stroke="#a6a6a6" points="1493,-318 1274.5,-318 1274.5,-322 1262.5,-322 1262.5,-282 1493,-282 1493,-318"/>
<polyline fill="none" stroke="#a6a6a6" points="1262.5,-318 1274.5,-318"/>
<text text-anchor="middle" x="1377.75" y="-295.32" font-family="Courier New" font-size="14.00">golang.org/x/tools/pkgbits</text>
</g>
<!-- golang.org/x/tools/internal/gcimporter&#45;&gt;golang.org/x/tools/internal/pkgbits -->
<g id="edge23" class="edge">
<title>golang.org/x/tools/internal/gcimporter&#45;&gt;golang.org/x/tools/internal/pkgbits</title>
<path fill="none" stroke="#a8a8a8" d="M729.78,-375.5C729.78,-366.25 729.78,-357 729.78,-357 729.78,-357 1381.12,-357 1381.12,-357 1381.12,-357 1381.12,-325.86 1381.12,-325.86"/>
<polygon fill="#a8a8a8" stroke="#a8a8a8" points="1383.23,-325.86 1381.13,-319.86 1379.03,-325.86 1383.23,-325.86"/>
</g>
<!-- golang.org/x/tools/internal/gocommand&#45;&gt;golang.org/x/mod/semver -->
<g id="edge25" class="edge">
<title>golang.org/x/tools/internal/gocommand&#45;&gt;golang.org/x/mod/semver</title>
<path fill="none" stroke="#a8a8a8" d="M1268.98,-488C1177.15,-488 1067.81,-488 1067.81,-488 1067.81,-488 1067.81,-419.64 1067.81,-419.64"/>
<polygon fill="#a8a8a8" stroke="#a8a8a8" points="1069.91,-419.64 1067.81,-413.64 1065.71,-419.64 1069.91,-419.64"/>
</g>
<!-- golang.org/x/tools/internal/event -->
<g id="node19" class="node">
<title>golang.org/x/tools/internal/event</title>
<polygon fill="#d4d4d4" stroke="#a6a6a6" points="2020.75,-412 1818.75,-412 1818.75,-416 1806.75,-416 1806.75,-376 2020.75,-376 2020.75,-412"/>
<polyline fill="none" stroke="#a6a6a6" points="1806.75,-412 1818.75,-412"/>
<text text-anchor="middle" x="1913.75" y="-389.32" font-family="Courier New" font-size="14.00">golang.org/x/tools/event</text>
</g>
<!-- golang.org/x/tools/internal/gocommand&#45;&gt;golang.org/x/tools/internal/event -->
<g id="edge26" class="edge">
<title>golang.org/x/tools/internal/gocommand&#45;&gt;golang.org/x/tools/internal/event</title>
<path fill="none" stroke="#a8a8a8" d="M1508.5,-469.77C1508.5,-443.99 1508.5,-400 1508.5,-400 1508.5,-400 1798.97,-400 1798.97,-400"/>
<polygon fill="#a8a8a8" stroke="#a8a8a8" points="1798.97,-402.1 1804.97,-400 1798.97,-397.9 1798.97,-402.1"/>
</g>
<!-- golang.org/x/tools/internal/event/keys -->
<g id="node21" class="node">
<title>golang.org/x/tools/internal/event/keys</title>
<polygon fill="#d4d4d4" stroke="#a6a6a6" points="1525.38,-224 1282.12,-224 1282.12,-228 1270.12,-228 1270.12,-188 1525.38,-188 1525.38,-224"/>
<polyline fill="none" stroke="#a6a6a6" points="1270.12,-224 1282.12,-224"/>
<text text-anchor="middle" x="1397.75" y="-201.32" font-family="Courier New" font-size="14.00">golang.org/x/tools/event/keys</text>
</g>
<!-- golang.org/x/tools/internal/gocommand&#45;&gt;golang.org/x/tools/internal/event/keys -->
<g id="edge27" class="edge">
<title>golang.org/x/tools/internal/gocommand&#45;&gt;golang.org/x/tools/internal/event/keys</title>
<path fill="none" stroke="#a8a8a8" d="M1500.75,-469.93C1500.75,-469.93 1500.75,-231.8 1500.75,-231.8"/>
<polygon fill="#a8a8a8" stroke="#a8a8a8" points="1502.85,-231.8 1500.75,-225.8 1498.65,-231.8 1502.85,-231.8"/>
</g>
<!-- golang.org/x/tools/internal/event/label -->
<g id="node22" class="node">
<title>golang.org/x/tools/internal/event/label</title>
<polygon fill="#d4d4d4" stroke="#a6a6a6" points="1934.5,-130 1683,-130 1683,-134 1671,-134 1671,-94 1934.5,-94 1934.5,-130"/>
<polyline fill="none" stroke="#a6a6a6" points="1671,-130 1683,-130"/>
<text text-anchor="middle" x="1802.75" y="-107.33" font-family="Courier New" font-size="14.00">golang.org/x/tools/event/label</text>
</g>
<!-- golang.org/x/tools/internal/gocommand&#45;&gt;golang.org/x/tools/internal/event/label -->
<g id="edge28" class="edge">
<title>golang.org/x/tools/internal/gocommand&#45;&gt;golang.org/x/tools/internal/event/label</title>
<path fill="none" stroke="#a8a8a8" d="M1516.73,-488C1616.05,-488 1738.88,-488 1738.88,-488 1738.88,-488 1738.88,-137.9 1738.88,-137.9"/>
<polygon fill="#a8a8a8" stroke="#a8a8a8" points="1740.98,-137.9 1738.88,-131.9 1736.78,-137.9 1740.98,-137.9"/>
</g>
<!-- golang.org/x/tools/internal/typesinternal&#45;&gt;golang.org/x/tools/go/ast/inspector -->
<g id="edge29" class="edge">
<title>golang.org/x/tools/internal/typesinternal&#45;&gt;golang.org/x/tools/go/ast/inspector</title>
<path fill="none" stroke="#a8a8a8" d="M672.17,-187.88C672.17,-187.88 672.17,-137.9 672.17,-137.9"/>
<polygon fill="#a8a8a8" stroke="#a8a8a8" points="674.27,-137.9 672.17,-131.9 670.07,-137.9 674.27,-137.9"/>
</g>
<!-- golang.org/x/tools/go/types/typeutil -->
<g id="node16" class="node">
<title>golang.org/x/tools/go/types/typeutil</title>
<polygon fill="#d4d4d4" stroke="#a6a6a6" points="1498.25,-130 1197.25,-130 1197.25,-134 1185.25,-134 1185.25,-94 1498.25,-94 1498.25,-130"/>
<polyline fill="none" stroke="#a6a6a6" points="1185.25,-130 1197.25,-130"/>
<text text-anchor="middle" x="1341.75" y="-107.33" font-family="Courier New" font-size="14.00">golang.org/x/tools/go/types/typeutil</text>
</g>
<!-- golang.org/x/tools/internal/typesinternal&#45;&gt;golang.org/x/tools/go/types/typeutil -->
<g id="edge30" class="edge">
<title>golang.org/x/tools/internal/typesinternal&#45;&gt;golang.org/x/tools/go/types/typeutil</title>
<path fill="none" stroke="#a8a8a8" d="M708.96,-187.69C708.96,-174.5 708.96,-159 708.96,-159 708.96,-159 1223.88,-159 1223.88,-159 1223.88,-159 1223.88,-137.82 1223.88,-137.82"/>
<polygon fill="#a8a8a8" stroke="#a8a8a8" points="1225.98,-137.82 1223.88,-131.82 1221.78,-137.82 1225.98,-137.82"/>
</g>
<!-- golang.org/x/tools/internal/stdlib -->
<g id="node24" class="node">
<title>golang.org/x/tools/internal/stdlib</title>
<polygon fill="#d4d4d4" stroke="#a6a6a6" points="307.88,-130 97.63,-130 97.63,-134 85.62,-134 85.62,-94 307.88,-94 307.88,-130"/>
<polyline fill="none" stroke="#a6a6a6" points="85.62,-130 97.63,-130"/>
<text text-anchor="middle" x="196.75" y="-107.33" font-family="Courier New" font-size="14.00">golang.org/x/tools/stdlib</text>
</g>
<!-- golang.org/x/tools/internal/typesinternal&#45;&gt;golang.org/x/tools/internal/stdlib -->
<g id="edge31" class="edge">
<title>golang.org/x/tools/internal/typesinternal&#45;&gt;golang.org/x/tools/internal/stdlib</title>
<path fill="none" stroke="#a8a8a8" d="M499.54,-187.88C499.54,-160.56 499.54,-112 499.54,-112 499.54,-112 315.72,-112 315.72,-112"/>
<polygon fill="#a8a8a8" stroke="#a8a8a8" points="315.72,-109.9 309.72,-112 315.72,-114.1 315.72,-109.9"/>
</g>
<!-- golang.org/x/tools/internal/versions -->
<g id="node25" class="node">
<title>golang.org/x/tools/internal/versions</title>
<polygon fill="#d4d4d4" stroke="#a6a6a6" points="567.12,-36 340.38,-36 340.38,-40 328.38,-40 328.38,0 567.12,0 567.12,-36"/>
<polyline fill="none" stroke="#a6a6a6" points="328.38,-36 340.38,-36"/>
<text text-anchor="middle" x="447.75" y="-13.32" font-family="Courier New" font-size="14.00">golang.org/x/tools/versions</text>
</g>
<!-- golang.org/x/tools/internal/typesinternal&#45;&gt;golang.org/x/tools/internal/versions -->
<g id="edge32" class="edge">
<title>golang.org/x/tools/internal/typesinternal&#45;&gt;golang.org/x/tools/internal/versions</title>
<path fill="none" stroke="#a8a8a8" d="M533.33,-187.63C533.33,-187.63 533.33,-43.96 533.33,-43.96"/>
<polygon fill="#a8a8a8" stroke="#a8a8a8" points="535.43,-43.96 533.33,-37.96 531.23,-43.96 535.43,-43.96"/>
</g>
<!-- golang.org/x/tools/go/types/objectpath&#45;&gt;golang.org/x/tools/internal/typesinternal -->
<g id="edge13" class="edge">
<title>golang.org/x/tools/go/types/objectpath&#45;&gt;golang.org/x/tools/internal/typesinternal</title>
<path fill="none" stroke="#a8a8a8" d="M687.38,-281.88C687.38,-281.88 687.38,-231.9 687.38,-231.9"/>
<polygon fill="#a8a8a8" stroke="#a8a8a8" points="689.48,-231.9 687.38,-225.9 685.28,-231.9 689.48,-231.9"/>
</g>
<!-- golang.org/x/tools/internal/typeparams -->
<g id="node17" class="node">
<title>golang.org/x/tools/internal/typeparams</title>
<polygon fill="#d4d4d4" stroke="#a6a6a6" points="1312.38,-36 1069.12,-36 1069.12,-40 1057.12,-40 1057.12,0 1312.38,0 1312.38,-36"/>
<polyline fill="none" stroke="#a6a6a6" points="1057.12,-36 1069.12,-36"/>
<text text-anchor="middle" x="1184.75" y="-13.32" font-family="Courier New" font-size="14.00">golang.org/x/tools/typeparams</text>
</g>
<!-- golang.org/x/tools/go/types/typeutil&#45;&gt;golang.org/x/tools/internal/typeparams -->
<g id="edge14" class="edge">
<title>golang.org/x/tools/go/types/typeutil&#45;&gt;golang.org/x/tools/internal/typeparams</title>
<path fill="none" stroke="#a8a8a8" d="M1248.81,-93.88C1248.81,-93.88 1248.81,-43.9 1248.81,-43.9"/>
<polygon fill="#a8a8a8" stroke="#a8a8a8" points="1250.91,-43.9 1248.81,-37.9 1246.71,-43.9 1250.91,-43.9"/>
</g>
<!-- golang.org/x/tools/internal/event/core -->
<g id="node20" class="node">
<title>golang.org/x/tools/internal/event/core</title>
<polygon fill="#d4d4d4" stroke="#a6a6a6" points="2458.38,-318 2215.12,-318 2215.12,-322 2203.12,-322 2203.12,-282 2458.38,-282 2458.38,-318"/>
<polyline fill="none" stroke="#a6a6a6" points="2203.12,-318 2215.12,-318"/>
<text text-anchor="middle" x="2330.75" y="-295.32" font-family="Courier New" font-size="14.00">golang.org/x/tools/event/core</text>
</g>
<!-- golang.org/x/tools/internal/event&#45;&gt;golang.org/x/tools/internal/event/core -->
<g id="edge15" class="edge">
<title>golang.org/x/tools/internal/event&#45;&gt;golang.org/x/tools/internal/event/core</title>
<path fill="none" stroke="#a8a8a8" d="M1977.62,-375.56C1977.62,-350.56 1977.62,-309 1977.62,-309 1977.62,-309 2195.25,-309 2195.25,-309"/>
<polygon fill="#a8a8a8" stroke="#a8a8a8" points="2195.25,-311.1 2201.25,-309 2195.25,-306.9 2195.25,-311.1"/>
</g>
<!-- golang.org/x/tools/internal/event&#45;&gt;golang.org/x/tools/internal/event/keys -->
<g id="edge16" class="edge">
<title>golang.org/x/tools/internal/event&#45;&gt;golang.org/x/tools/internal/event/keys</title>
<path fill="none" stroke="#a8a8a8" d="M1806.48,-388C1689.68,-388 1519.29,-388 1519.29,-388 1519.29,-388 1519.29,-231.97 1519.29,-231.97"/>
<polygon fill="#a8a8a8" stroke="#a8a8a8" points="1521.39,-231.97 1519.29,-225.97 1517.19,-231.97 1521.39,-231.97"/>
</g>
<!-- golang.org/x/tools/internal/event&#45;&gt;golang.org/x/tools/internal/event/label -->
<g id="edge17" class="edge">
<title>golang.org/x/tools/internal/event&#45;&gt;golang.org/x/tools/internal/event/label</title>
<path fill="none" stroke="#a8a8a8" d="M1849.33,-375.93C1849.33,-375.93 1849.33,-137.8 1849.33,-137.8"/>
<polygon fill="#a8a8a8" stroke="#a8a8a8" points="1851.43,-137.8 1849.33,-131.8 1847.23,-137.8 1851.43,-137.8"/>
</g>
<!-- golang.org/x/tools/internal/event/core&#45;&gt;golang.org/x/tools/internal/event/keys -->
<g id="edge18" class="edge">
<title>golang.org/x/tools/internal/event/core&#45;&gt;golang.org/x/tools/internal/event/keys</title>
<path fill="none" stroke="#a8a8a8" d="M2202.65,-300C1974.7,-300 1522.33,-300 1522.33,-300 1522.33,-300 1522.33,-231.64 1522.33,-231.64"/>
<polygon fill="#a8a8a8" stroke="#a8a8a8" points="1524.43,-231.64 1522.33,-225.64 1520.23,-231.64 1524.43,-231.64"/>
</g>
<!-- golang.org/x/tools/internal/event/core&#45;&gt;golang.org/x/tools/internal/event/label -->
<g id="edge19" class="edge">
<title>golang.org/x/tools/internal/event/core&#45;&gt;golang.org/x/tools/internal/event/label</title>
<path fill="none" stroke="#a8a8a8" d="M2202.64,-291C2073.11,-291 1891.92,-291 1891.92,-291 1891.92,-291 1891.92,-138 1891.92,-138"/>
<polygon fill="#a8a8a8" stroke="#a8a8a8" points="1894.02,-138 1891.92,-132 1889.82,-138 1894.02,-138"/>
</g>
<!-- golang.org/x/tools/internal/event/keys&#45;&gt;golang.org/x/tools/internal/event/label -->
<g id="edge20" class="edge">
<title>golang.org/x/tools/internal/event/keys&#45;&gt;golang.org/x/tools/internal/event/label</title>
<path fill="none" stroke="#a8a8a8" d="M1511.81,-187.88C1511.81,-160.56 1511.81,-112 1511.81,-112 1511.81,-112 1663.39,-112 1663.39,-112"/>
<polygon fill="#a8a8a8" stroke="#a8a8a8" points="1663.39,-114.1 1669.39,-112 1663.39,-109.9 1663.39,-114.1"/>
</g>
</g>
</svg>
