<?xml version="1.0" encoding="UTF-8" standalone="no"?>
<!DOCTYPE svg PUBLIC "-//W3C//DTD SVG 1.1//EN"
 "http://www.w3.org/Graphics/SVG/1.1/DTD/svg11.dtd">
<!-- Generated by graphviz version 12.2.1 (20241206.2353)
 -->
<!-- Title: DepGraph Pages: 1 -->
<svg width="2853pt" height="1005pt"
 viewBox="0.00 0.00 2853.18 1004.80" xmlns="http://www.w3.org/2000/svg" xmlns:xlink="http://www.w3.org/1999/xlink">
<g id="graph0" class="graph" transform="scale(1 1) rotate(0) translate(14.4 990.4)">
<title>DepGraph</title>
<polygon fill="white" stroke="none" points="-14,14 -14,-990 2839,-990 2839,14 -14,14"/>
<!-- github.com/codemityio/goforma -->
<g id="node1" class="node">
<title>github.com/codemityio/goforma</title>
<polygon fill="#fcfcfc" stroke="#949494" points="427,-976 184,-976 184,-980 172,-980 172,-940 427,-940 427,-976"/>
<polyline fill="none" stroke="#949494" points="172,-976 184,-976"/>
<text text-anchor="middle" x="299" y="-953" font-family="Courier New" font-size="14.00">github.com/codemityio/goforma</text>
</g>
<!-- github.com/codemityio/goforma/cmd/badge -->
<g id="node2" class="node">
<title>github.com/codemityio/goforma/cmd/badge</title>
<polygon fill="#fcfcfc" stroke="#949494" points="965,-882 639,-882 639,-886 627,-886 627,-846 965,-846 965,-882"/>
<polyline fill="none" stroke="#949494" points="627,-882 639,-882"/>
<text text-anchor="middle" x="796" y="-859" font-family="Courier New" font-size="14.00">github.com/codemityio/goforma/cmd/badge</text>
</g>
<!-- github.com/codemityio/goforma&#45;&gt;github.com/codemityio/goforma/cmd/badge -->
<g id="edge1" class="edge">
<title>github.com/codemityio/goforma&#45;&gt;github.com/codemityio/goforma/cmd/badge</title>
<path fill="none" stroke="#a8a8a8" d="M373,-940C373,-914 373,-870 373,-870 373,-870 620,-870 620,-870"/>
<polygon fill="#a8a8a8" stroke="#a8a8a8" points="620,-872 626,-870 620,-868 620,-872"/>
</g>
<!-- github.com/codemityio/goforma/cmd/code -->
<g id="node3" class="node">
<title>github.com/codemityio/goforma/cmd/code</title>
<polygon fill="#fcfcfc" stroke="#949494" points="1401,-882 1083,-882 1083,-886 1071,-886 1071,-846 1401,-846 1401,-882"/>
<polyline fill="none" stroke="#949494" points="1071,-882 1083,-882"/>
<text text-anchor="middle" x="1236" y="-859" font-family="Courier New" font-size="14.00">github.com/codemityio/goforma/cmd/code</text>
</g>
<!-- github.com/codemityio/goforma&#45;&gt;github.com/codemityio/goforma/cmd/code -->
<g id="edge2" class="edge">
<title>github.com/codemityio/goforma&#45;&gt;github.com/codemityio/goforma/cmd/code</title>
<path fill="none" stroke="#a8a8a8" d="M427,-958C683,-958 1236,-958 1236,-958 1236,-958 1236,-890 1236,-890"/>
<polygon fill="#a8a8a8" stroke="#a8a8a8" points="1238,-890 1236,-884 1234,-890 1238,-890"/>
</g>
<!-- github.com/codemityio/goforma/internal/app -->
<g id="node4" class="node">
<title>github.com/codemityio/goforma/internal/app</title>
<polygon fill="#fcfcfc" stroke="#949494" points="295,-882 19,-882 19,-886 7,-886 7,-846 295,-846 295,-882"/>
<polyline fill="none" stroke="#949494" points="7,-882 19,-882"/>
<text text-anchor="middle" x="151" y="-859" font-family="Courier New" font-size="14.00">github.com/codemityio/goforma/app</text>
</g>
<!-- github.com/codemityio/goforma&#45;&gt;github.com/codemityio/goforma/internal/app -->
<g id="edge3" class="edge">
<title>github.com/codemityio/goforma&#45;&gt;github.com/codemityio/goforma/internal/app</title>
<path fill="none" stroke="#a8a8a8" d="M233,-940C233,-940 233,-890 233,-890"/>
<polygon fill="#a8a8a8" stroke="#a8a8a8" points="235,-890 233,-884 231,-890 235,-890"/>
</g>
<!-- github.com/urfave/cli/v2 -->
<g id="node5" class="node">
<title>github.com/urfave/cli/v2</title>
<polygon fill="#d4d4d4" stroke="#a6a6a6" points="319,-788 117,-788 117,-792 105,-792 105,-752 319,-752 319,-788"/>
<polyline fill="none" stroke="#a6a6a6" points="105,-788 117,-788"/>
<text text-anchor="middle" x="212" y="-765" font-family="Courier New" font-size="14.00">github.com/urfave/cli/v2</text>
</g>
<!-- github.com/codemityio/goforma&#45;&gt;github.com/urfave/cli/v2 -->
<g id="edge4" class="edge">
<title>github.com/codemityio/goforma&#45;&gt;github.com/urfave/cli/v2</title>
<path fill="none" stroke="#a8a8a8" d="M301,-940C301,-940 301,-796 301,-796"/>
<polygon fill="#a8a8a8" stroke="#a8a8a8" points="303,-796 301,-790 299,-796 303,-796"/>
</g>
<!-- github.com/codemityio/goforma/cmd/badge&#45;&gt;github.com/urfave/cli/v2 -->
<g id="edge5" class="edge">
<title>github.com/codemityio/goforma/cmd/badge&#45;&gt;github.com/urfave/cli/v2</title>
<path fill="none" stroke="#a8a8a8" d="M627,-858C486,-858 307,-858 307,-858 307,-858 307,-796 307,-796"/>
<polygon fill="#a8a8a8" stroke="#a8a8a8" points="309,-796 307,-790 305,-796 309,-796"/>
</g>
<!-- github.com/codemityio/goforma/cmd/code&#45;&gt;github.com/urfave/cli/v2 -->
<g id="edge10" class="edge">
<title>github.com/codemityio/goforma/cmd/code&#45;&gt;github.com/urfave/cli/v2</title>
<path fill="none" stroke="#a8a8a8" d="M1079,-846C1079,-833 1079,-817 1079,-817 1079,-817 313,-817 313,-817 313,-817 313,-796 313,-796"/>
<polygon fill="#a8a8a8" stroke="#a8a8a8" points="315,-796 313,-790 311,-796 315,-796"/>
</g>
<!-- github.com/codemityio/goforma/pkg/code/doc -->
<g id="node6" class="node">
<title>github.com/codemityio/goforma/pkg/code/doc</title>
<polygon fill="#fcfcfc" stroke="#949494" points="2641,-36 2291,-36 2291,-40 2279,-40 2279,0 2641,0 2641,-36"/>
<polyline fill="none" stroke="#949494" points="2279,-36 2291,-36"/>
<text text-anchor="middle" x="2460" y="-13" font-family="Courier New" font-size="14.00">github.com/codemityio/goforma/pkg/code/doc</text>
</g>
<!-- github.com/codemityio/goforma/cmd/code&#45;&gt;github.com/codemityio/goforma/pkg/code/doc -->
<g id="edge6" class="edge">
<title>github.com/codemityio/goforma/cmd/code&#45;&gt;github.com/codemityio/goforma/pkg/code/doc</title>
<path fill="none" stroke="#a8a8a8" d="M1401,-864C1756,-864 2560,-864 2560,-864 2560,-864 2560,-44 2560,-44"/>
<polygon fill="#a8a8a8" stroke="#a8a8a8" points="2562,-44 2560,-38 2558,-44 2562,-44"/>
</g>
<!-- github.com/codemityio/goforma/pkg/code/gen -->
<g id="node7" class="node">
<title>github.com/codemityio/goforma/pkg/code/gen</title>
<polygon fill="#fcfcfc" stroke="#949494" points="1059,-788 709,-788 709,-792 697,-792 697,-752 1059,-752 1059,-788"/>
<polyline fill="none" stroke="#949494" points="697,-788 709,-788"/>
<text text-anchor="middle" x="878" y="-765" font-family="Courier New" font-size="14.00">github.com/codemityio/goforma/pkg/code/gen</text>
</g>
<!-- github.com/codemityio/goforma/cmd/code&#45;&gt;github.com/codemityio/goforma/pkg/code/gen -->
<g id="edge7" class="edge">
<title>github.com/codemityio/goforma/cmd/code&#45;&gt;github.com/codemityio/goforma/pkg/code/gen</title>
<path fill="none" stroke="#a8a8a8" d="M1086,-846C1086,-820 1086,-776 1086,-776 1086,-776 1067,-776 1067,-776"/>
<polygon fill="#a8a8a8" stroke="#a8a8a8" points="1067,-774 1061,-776 1067,-778 1067,-774"/>
</g>
<!-- github.com/codemityio/goforma/pkg/code/imports -->
<g id="node8" class="node">
<title>github.com/codemityio/goforma/pkg/code/imports</title>
<polygon fill="#fcfcfc" stroke="#949494" points="1101,-694 717,-694 717,-698 705,-698 705,-658 1101,-658 1101,-694"/>
<polyline fill="none" stroke="#949494" points="705,-694 717,-694"/>
<text text-anchor="middle" x="903" y="-671" font-family="Courier New" font-size="14.00">github.com/codemityio/goforma/pkg/code/imports</text>
</g>
<!-- github.com/codemityio/goforma/cmd/code&#45;&gt;github.com/codemityio/goforma/pkg/code/imports -->
<g id="edge8" class="edge">
<title>github.com/codemityio/goforma/cmd/code&#45;&gt;github.com/codemityio/goforma/pkg/code/imports</title>
<path fill="none" stroke="#a8a8a8" d="M1094,-846C1094,-846 1094,-702 1094,-702"/>
<polygon fill="#a8a8a8" stroke="#a8a8a8" points="1096,-702 1094,-696 1091,-702 1096,-702"/>
</g>
<!-- github.com/codemityio/goforma/pkg/code/parser -->
<g id="node9" class="node">
<title>github.com/codemityio/goforma/pkg/code/parser</title>
<polygon fill="#fcfcfc" stroke="#949494" points="1589,-694 1214,-694 1214,-698 1202,-698 1202,-658 1589,-658 1589,-694"/>
<polyline fill="none" stroke="#949494" points="1202,-694 1214,-694"/>
<text text-anchor="middle" x="1395" y="-671" font-family="Courier New" font-size="14.00">github.com/codemityio/goforma/pkg/code/parser</text>
</g>
<!-- github.com/codemityio/goforma/cmd/code&#45;&gt;github.com/codemityio/goforma/pkg/code/parser -->
<g id="edge9" class="edge">
<title>github.com/codemityio/goforma/cmd/code&#45;&gt;github.com/codemityio/goforma/pkg/code/parser</title>
<path fill="none" stroke="#a8a8a8" d="M1334,-846C1334,-846 1334,-702 1334,-702"/>
<polygon fill="#a8a8a8" stroke="#a8a8a8" points="1337,-702 1334,-696 1332,-702 1337,-702"/>
</g>
<!-- github.com/codemityio/goforma/internal/app&#45;&gt;github.com/urfave/cli/v2 -->
<g id="edge11" class="edge">
<title>github.com/codemityio/goforma/internal/app&#45;&gt;github.com/urfave/cli/v2</title>
<path fill="none" stroke="#a8a8a8" d="M200,-846C200,-846 200,-796 200,-796"/>
<polygon fill="#a8a8a8" stroke="#a8a8a8" points="202,-796 200,-790 198,-796 202,-796"/>
</g>
<!-- github.com/cpuguy83/go&#45;md2man/v2/md2man -->
<g id="node11" class="node">
<title>github.com/cpuguy83/go&#45;md2man/v2/md2man</title>
<polygon fill="#d4d4d4" stroke="#a6a6a6" points="604,-694 278,-694 278,-698 266,-698 266,-658 604,-658 604,-694"/>
<polyline fill="none" stroke="#a6a6a6" points="266,-694 278,-694"/>
<text text-anchor="middle" x="435" y="-671" font-family="Courier New" font-size="14.00">github.com/cpuguy83/go&#45;md2man/v2/md2man</text>
</g>
<!-- github.com/urfave/cli/v2&#45;&gt;github.com/cpuguy83/go&#45;md2man/v2/md2man -->
<g id="edge18" class="edge">
<title>github.com/urfave/cli/v2&#45;&gt;github.com/cpuguy83/go&#45;md2man/v2/md2man</title>
<path fill="none" stroke="#a8a8a8" d="M293,-752C293,-752 293,-702 293,-702"/>
<polygon fill="#a8a8a8" stroke="#a8a8a8" points="295,-702 293,-696 291,-702 295,-702"/>
</g>
<!-- github.com/xrash/smetrics -->
<g id="node13" class="node">
<title>github.com/xrash/smetrics</title>
<polygon fill="#d4d4d4" stroke="#a6a6a6" points="222,-224 12,-224 12,-228 0,-228 0,-188 222,-188 222,-224"/>
<polyline fill="none" stroke="#a6a6a6" points="0,-224 12,-224"/>
<text text-anchor="middle" x="111" y="-201" font-family="Courier New" font-size="14.00">github.com/xrash/smetrics</text>
</g>
<!-- github.com/urfave/cli/v2&#45;&gt;github.com/xrash/smetrics -->
<g id="edge19" class="edge">
<title>github.com/urfave/cli/v2&#45;&gt;github.com/xrash/smetrics</title>
<path fill="none" stroke="#a8a8a8" d="M164,-752C164,-752 164,-232 164,-232"/>
<polygon fill="#a8a8a8" stroke="#a8a8a8" points="166,-232 164,-226 162,-232 166,-232"/>
</g>
<!-- github.com/codemityio/goforma/pkg/code/gen&#45;&gt;github.com/codemityio/goforma/pkg/code/imports -->
<g id="edge12" class="edge">
<title>github.com/codemityio/goforma/pkg/code/gen&#45;&gt;github.com/codemityio/goforma/pkg/code/imports</title>
<path fill="none" stroke="#a8a8a8" d="M882,-752C882,-752 882,-702 882,-702"/>
<polygon fill="#a8a8a8" stroke="#a8a8a8" points="884,-702 882,-696 880,-702 884,-702"/>
</g>
<!-- github.com/codemityio/goforma/pkg/code/gen&#45;&gt;github.com/codemityio/goforma/pkg/code/parser -->
<g id="edge13" class="edge">
<title>github.com/codemityio/goforma/pkg/code/gen&#45;&gt;github.com/codemityio/goforma/pkg/code/parser</title>
<path fill="none" stroke="#a8a8a8" d="M1060,-764C1161,-764 1268,-764 1268,-764 1268,-764 1268,-702 1268,-702"/>
<polygon fill="#a8a8a8" stroke="#a8a8a8" points="1270,-702 1268,-696 1266,-702 1270,-702"/>
</g>
<!-- golang.org/x/tools/go/packages -->
<g id="node10" class="node">
<title>golang.org/x/tools/go/packages</title>
<polygon fill="#d4d4d4" stroke="#a6a6a6" points="988,-600 736,-600 736,-604 724,-604 724,-564 988,-564 988,-600"/>
<polyline fill="none" stroke="#a6a6a6" points="724,-600 736,-600"/>
<text text-anchor="middle" x="856" y="-577" font-family="Courier New" font-size="14.00">golang.org/x/tools/go/packages</text>
</g>
<!-- github.com/codemityio/goforma/pkg/code/imports&#45;&gt;golang.org/x/tools/go/packages -->
<g id="edge14" class="edge">
<title>github.com/codemityio/goforma/pkg/code/imports&#45;&gt;golang.org/x/tools/go/packages</title>
<path fill="none" stroke="#a8a8a8" d="M856,-658C856,-658 856,-608 856,-608"/>
<polygon fill="#a8a8a8" stroke="#a8a8a8" points="858,-608 856,-602 854,-608 858,-608"/>
</g>
<!-- github.com/codemityio/goforma/pkg/code/parser&#45;&gt;github.com/codemityio/goforma/pkg/code/doc -->
<g id="edge15" class="edge">
<title>github.com/codemityio/goforma/pkg/code/parser&#45;&gt;github.com/codemityio/goforma/pkg/code/doc</title>
<path fill="none" stroke="#a8a8a8" d="M1589,-676C1912,-676 2527,-676 2527,-676 2527,-676 2527,-44 2527,-44"/>
<polygon fill="#a8a8a8" stroke="#a8a8a8" points="2529,-44 2527,-38 2524,-44 2529,-44"/>
</g>
<!-- github.com/codemityio/goforma/pkg/code/parser&#45;&gt;golang.org/x/tools/go/packages -->
<g id="edge16" class="edge">
<title>github.com/codemityio/goforma/pkg/code/parser&#45;&gt;golang.org/x/tools/go/packages</title>
<path fill="none" stroke="#a8a8a8" d="M1235,-658C1235,-632 1235,-588 1235,-588 1235,-588 996,-588 996,-588"/>
<polygon fill="#a8a8a8" stroke="#a8a8a8" points="996,-586 990,-588 996,-590 996,-586"/>
</g>
<!-- golang.org/x/sync/errgroup -->
<g id="node15" class="node">
<title>golang.org/x/sync/errgroup</title>
<polygon fill="#d4d4d4" stroke="#a6a6a6" points="1771,-412 1553,-412 1553,-416 1541,-416 1541,-376 1771,-376 1771,-412"/>
<polyline fill="none" stroke="#a6a6a6" points="1541,-412 1553,-412"/>
<text text-anchor="middle" x="1656" y="-389" font-family="Courier New" font-size="14.00">golang.org/x/sync/errgroup</text>
</g>
<!-- golang.org/x/tools/go/packages&#45;&gt;golang.org/x/sync/errgroup -->
<g id="edge22" class="edge">
<title>golang.org/x/tools/go/packages&#45;&gt;golang.org/x/sync/errgroup</title>
<path fill="none" stroke="#a8a8a8" d="M971,-564C971,-516 971,-394 971,-394 971,-394 1533,-394 1533,-394"/>
<polygon fill="#a8a8a8" stroke="#a8a8a8" points="1533,-396 1539,-394 1533,-392 1533,-396"/>
</g>
<!-- golang.org/x/tools/go/gcexportdata -->
<g id="node18" class="node">
<title>golang.org/x/tools/go/gcexportdata</title>
<polygon fill="#d4d4d4" stroke="#a6a6a6" points="2073,-506 1789,-506 1789,-510 1777,-510 1777,-470 2073,-470 2073,-506"/>
<polyline fill="none" stroke="#a6a6a6" points="1777,-506 1789,-506"/>
<text text-anchor="middle" x="1925" y="-483" font-family="Courier New" font-size="14.00">golang.org/x/tools/go/gcexportdata</text>
</g>
<!-- golang.org/x/tools/go/packages&#45;&gt;golang.org/x/tools/go/gcexportdata -->
<g id="edge23" class="edge">
<title>golang.org/x/tools/go/packages&#45;&gt;golang.org/x/tools/go/gcexportdata</title>
<path fill="none" stroke="#a8a8a8" d="M979,-564C979,-537 979,-488 979,-488 979,-488 1769,-488 1769,-488"/>
<polygon fill="#a8a8a8" stroke="#a8a8a8" points="1769,-490 1775,-488 1769,-486 1769,-490"/>
</g>
<!-- golang.org/x/tools/internal/gocommand -->
<g id="node20" class="node">
<title>golang.org/x/tools/internal/gocommand</title>
<polygon fill="#d4d4d4" stroke="#a6a6a6" points="510,-506 275,-506 275,-510 263,-510 263,-470 510,-470 510,-506"/>
<polyline fill="none" stroke="#a6a6a6" points="263,-506 275,-506"/>
<text text-anchor="middle" x="386" y="-483" font-family="Courier New" font-size="14.00">golang.org/x/tools/gocommand</text>
</g>
<!-- golang.org/x/tools/go/packages&#45;&gt;golang.org/x/tools/internal/gocommand -->
<g id="edge24" class="edge">
<title>golang.org/x/tools/go/packages&#45;&gt;golang.org/x/tools/internal/gocommand</title>
<path fill="none" stroke="#a8a8a8" d="M724,-582C668,-582 616,-582 616,-582 616,-582 616,-494 616,-494 616,-494 517,-494 517,-494"/>
<polygon fill="#a8a8a8" stroke="#a8a8a8" points="517,-492 511,-494 517,-496 517,-492"/>
</g>
<!-- golang.org/x/tools/internal/packagesinternal -->
<g id="node21" class="node">
<title>golang.org/x/tools/internal/packagesinternal</title>
<polygon fill="#d4d4d4" stroke="#a6a6a6" points="937,-506 644,-506 644,-510 632,-510 632,-470 937,-470 937,-506"/>
<polyline fill="none" stroke="#a6a6a6" points="632,-506 644,-506"/>
<text text-anchor="middle" x="784" y="-483" font-family="Courier New" font-size="14.00">golang.org/x/tools/packagesinternal</text>
</g>
<!-- golang.org/x/tools/go/packages&#45;&gt;golang.org/x/tools/internal/packagesinternal -->
<g id="edge25" class="edge">
<title>golang.org/x/tools/go/packages&#45;&gt;golang.org/x/tools/internal/packagesinternal</title>
<path fill="none" stroke="#a8a8a8" d="M830,-564C830,-564 830,-514 830,-514"/>
<polygon fill="#a8a8a8" stroke="#a8a8a8" points="833,-514 830,-508 828,-514 833,-514"/>
</g>
<!-- golang.org/x/tools/internal/typesinternal -->
<g id="node22" class="node">
<title>golang.org/x/tools/internal/typesinternal</title>
<polygon fill="#d4d4d4" stroke="#a6a6a6" points="1961,-224 1693,-224 1693,-228 1681,-228 1681,-188 1961,-188 1961,-224"/>
<polyline fill="none" stroke="#a6a6a6" points="1681,-224 1693,-224"/>
<text text-anchor="middle" x="1821" y="-201" font-family="Courier New" font-size="14.00">golang.org/x/tools/typesinternal</text>
</g>
<!-- golang.org/x/tools/go/packages&#45;&gt;golang.org/x/tools/internal/typesinternal -->
<g id="edge26" class="edge">
<title>golang.org/x/tools/go/packages&#45;&gt;golang.org/x/tools/internal/typesinternal</title>
<path fill="none" stroke="#a8a8a8" d="M988,-576C1076,-576 1176,-576 1176,-576 1176,-576 1176,-212 1176,-212 1176,-212 1673,-212 1673,-212"/>
<polygon fill="#a8a8a8" stroke="#a8a8a8" points="1673,-214 1679,-212 1673,-210 1673,-214"/>
</g>
<!-- github.com/russross/blackfriday/v2 -->
<g id="node12" class="node">
<title>github.com/russross/blackfriday/v2</title>
<polygon fill="#d4d4d4" stroke="#a6a6a6" points="577,-600 293,-600 293,-604 281,-604 281,-564 577,-564 577,-600"/>
<polyline fill="none" stroke="#a6a6a6" points="281,-600 293,-600"/>
<text text-anchor="middle" x="429" y="-577" font-family="Courier New" font-size="14.00">github.com/russross/blackfriday/v2</text>
</g>
<!-- github.com/cpuguy83/go&#45;md2man/v2/md2man&#45;&gt;github.com/russross/blackfriday/v2 -->
<g id="edge17" class="edge">
<title>github.com/cpuguy83/go&#45;md2man/v2/md2man&#45;&gt;github.com/russross/blackfriday/v2</title>
<path fill="none" stroke="#a8a8a8" d="M429,-658C429,-658 429,-608 429,-608"/>
<polygon fill="#a8a8a8" stroke="#a8a8a8" points="431,-608 429,-602 427,-608 431,-608"/>
</g>
<!-- golang.org/x/mod/semver -->
<g id="node14" class="node">
<title>golang.org/x/mod/semver</title>
<polygon fill="#d4d4d4" stroke="#a6a6a6" points="543,-224 349,-224 349,-228 337,-228 337,-188 543,-188 543,-224"/>
<polyline fill="none" stroke="#a6a6a6" points="337,-224 349,-224"/>
<text text-anchor="middle" x="440" y="-201" font-family="Courier New" font-size="14.00">golang.org/x/mod/semver</text>
</g>
<!-- golang.org/x/tools/go/ast/edge -->
<g id="node16" class="node">
<title>golang.org/x/tools/go/ast/edge</title>
<polygon fill="#d4d4d4" stroke="#a6a6a6" points="1167,-36 915,-36 915,-40 903,-40 903,0 1167,0 1167,-36"/>
<polyline fill="none" stroke="#a6a6a6" points="903,-36 915,-36"/>
<text text-anchor="middle" x="1035" y="-13" font-family="Courier New" font-size="14.00">golang.org/x/tools/go/ast/edge</text>
</g>
<!-- golang.org/x/tools/go/ast/inspector -->
<g id="node17" class="node">
<title>golang.org/x/tools/go/ast/inspector</title>
<polygon fill="#d4d4d4" stroke="#a6a6a6" points="1198,-130 905,-130 905,-134 893,-134 893,-94 1198,-94 1198,-130"/>
<polyline fill="none" stroke="#a6a6a6" points="893,-130 905,-130"/>
<text text-anchor="middle" x="1045" y="-107" font-family="Courier New" font-size="14.00">golang.org/x/tools/go/ast/inspector</text>
</g>
<!-- golang.org/x/tools/go/ast/inspector&#45;&gt;golang.org/x/tools/go/ast/edge -->
<g id="edge20" class="edge">
<title>golang.org/x/tools/go/ast/inspector&#45;&gt;golang.org/x/tools/go/ast/edge</title>
<path fill="none" stroke="#a8a8a8" d="M1035,-94C1035,-94 1035,-44 1035,-44"/>
<polygon fill="#a8a8a8" stroke="#a8a8a8" points="1037,-44 1035,-38 1033,-44 1037,-44"/>
</g>
<!-- golang.org/x/tools/internal/gcimporter -->
<g id="node19" class="node">
<title>golang.org/x/tools/internal/gcimporter</title>
<polygon fill="#d4d4d4" stroke="#a6a6a6" points="2133,-412 1890,-412 1890,-416 1878,-416 1878,-376 2133,-376 2133,-412"/>
<polyline fill="none" stroke="#a6a6a6" points="1878,-412 1890,-412"/>
<text text-anchor="middle" x="2005" y="-389" font-family="Courier New" font-size="14.00">golang.org/x/tools/gcimporter</text>
</g>
<!-- golang.org/x/tools/go/gcexportdata&#45;&gt;golang.org/x/tools/internal/gcimporter -->
<g id="edge21" class="edge">
<title>golang.org/x/tools/go/gcexportdata&#45;&gt;golang.org/x/tools/internal/gcimporter</title>
<path fill="none" stroke="#a8a8a8" d="M1975,-470C1975,-470 1975,-420 1975,-420"/>
<polygon fill="#a8a8a8" stroke="#a8a8a8" points="1978,-420 1975,-414 1973,-420 1978,-420"/>
</g>
<!-- golang.org/x/tools/internal/gcimporter&#45;&gt;golang.org/x/tools/internal/typesinternal -->
<g id="edge38" class="edge">
<title>golang.org/x/tools/internal/gcimporter&#45;&gt;golang.org/x/tools/internal/typesinternal</title>
<path fill="none" stroke="#a8a8a8" d="M1919,-376C1919,-376 1919,-232 1919,-232"/>
<polygon fill="#a8a8a8" stroke="#a8a8a8" points="1921,-232 1919,-226 1917,-232 1921,-232"/>
</g>
<!-- golang.org/x/tools/go/types/objectpath -->
<g id="node23" class="node">
<title>golang.org/x/tools/go/types/objectpath</title>
<polygon fill="#d4d4d4" stroke="#a6a6a6" points="2493,-318 2175,-318 2175,-322 2163,-322 2163,-282 2493,-282 2493,-318"/>
<polyline fill="none" stroke="#a6a6a6" points="2163,-318 2175,-318"/>
<text text-anchor="middle" x="2328" y="-295" font-family="Courier New" font-size="14.00">golang.org/x/tools/go/types/objectpath</text>
</g>
<!-- golang.org/x/tools/internal/gcimporter&#45;&gt;golang.org/x/tools/go/types/objectpath -->
<g id="edge35" class="edge">
<title>golang.org/x/tools/internal/gcimporter&#45;&gt;golang.org/x/tools/go/types/objectpath</title>
<path fill="none" stroke="#a8a8a8" d="M2076,-376C2076,-349 2076,-300 2076,-300 2076,-300 2156,-300 2156,-300"/>
<polygon fill="#a8a8a8" stroke="#a8a8a8" points="2156,-302 2162,-300 2156,-298 2156,-302"/>
</g>
<!-- golang.org/x/tools/internal/aliases -->
<g id="node26" class="node">
<title>golang.org/x/tools/internal/aliases</title>
<polygon fill="#d4d4d4" stroke="#a6a6a6" points="2177,-36 1959,-36 1959,-40 1947,-40 1947,0 2177,0 2177,-36"/>
<polyline fill="none" stroke="#a6a6a6" points="1947,-36 1959,-36"/>
<text text-anchor="middle" x="2062" y="-13" font-family="Courier New" font-size="14.00">golang.org/x/tools/aliases</text>
</g>
<!-- golang.org/x/tools/internal/gcimporter&#45;&gt;golang.org/x/tools/internal/aliases -->
<g id="edge36" class="edge">
<title>golang.org/x/tools/internal/gcimporter&#45;&gt;golang.org/x/tools/internal/aliases</title>
<path fill="none" stroke="#a8a8a8" d="M2018,-376C2018,-376 2018,-44 2018,-44"/>
<polygon fill="#a8a8a8" stroke="#a8a8a8" points="2020,-44 2018,-38 2016,-44 2020,-44"/>
</g>
<!-- golang.org/x/tools/internal/pkgbits -->
<g id="node31" class="node">
<title>golang.org/x/tools/internal/pkgbits</title>
<polygon fill="#d4d4d4" stroke="#a6a6a6" points="2824,-318 2606,-318 2606,-322 2594,-322 2594,-282 2824,-282 2824,-318"/>
<polyline fill="none" stroke="#a6a6a6" points="2594,-318 2606,-318"/>
<text text-anchor="middle" x="2709" y="-295" font-family="Courier New" font-size="14.00">golang.org/x/tools/pkgbits</text>
</g>
<!-- golang.org/x/tools/internal/gcimporter&#45;&gt;golang.org/x/tools/internal/pkgbits -->
<g id="edge37" class="edge">
<title>golang.org/x/tools/internal/gcimporter&#45;&gt;golang.org/x/tools/internal/pkgbits</title>
<path fill="none" stroke="#a8a8a8" d="M2133,-394C2336,-394 2709,-394 2709,-394 2709,-394 2709,-326 2709,-326"/>
<polygon fill="#a8a8a8" stroke="#a8a8a8" points="2711,-326 2709,-320 2707,-326 2711,-326"/>
</g>
<!-- golang.org/x/tools/internal/gocommand&#45;&gt;golang.org/x/mod/semver -->
<g id="edge39" class="edge">
<title>golang.org/x/tools/internal/gocommand&#45;&gt;golang.org/x/mod/semver</title>
<path fill="none" stroke="#a8a8a8" d="M395,-470C395,-470 395,-232 395,-232"/>
<polygon fill="#a8a8a8" stroke="#a8a8a8" points="397,-232 395,-226 393,-232 397,-232"/>
</g>
<!-- golang.org/x/tools/internal/event -->
<g id="node27" class="node">
<title>golang.org/x/tools/internal/event</title>
<polygon fill="#d4d4d4" stroke="#a6a6a6" points="962,-412 760,-412 760,-416 748,-416 748,-376 962,-376 962,-412"/>
<polyline fill="none" stroke="#a6a6a6" points="748,-412 760,-412"/>
<text text-anchor="middle" x="855" y="-389" font-family="Courier New" font-size="14.00">golang.org/x/tools/event</text>
</g>
<!-- golang.org/x/tools/internal/gocommand&#45;&gt;golang.org/x/tools/internal/event -->
<g id="edge40" class="edge">
<title>golang.org/x/tools/internal/gocommand&#45;&gt;golang.org/x/tools/internal/event</title>
<path fill="none" stroke="#a8a8a8" d="M452,-470C452,-444 452,-400 452,-400 452,-400 740,-400 740,-400"/>
<polygon fill="#a8a8a8" stroke="#a8a8a8" points="740,-402 746,-400 740,-398 740,-402"/>
</g>
<!-- golang.org/x/tools/internal/event/keys -->
<g id="node29" class="node">
<title>golang.org/x/tools/internal/event/keys</title>
<polygon fill="#d4d4d4" stroke="#a6a6a6" points="907,-224 664,-224 664,-228 652,-228 652,-188 907,-188 907,-224"/>
<polyline fill="none" stroke="#a6a6a6" points="652,-224 664,-224"/>
<text text-anchor="middle" x="779" y="-201" font-family="Courier New" font-size="14.00">golang.org/x/tools/event/keys</text>
</g>
<!-- golang.org/x/tools/internal/gocommand&#45;&gt;golang.org/x/tools/internal/event/keys -->
<g id="edge41" class="edge">
<title>golang.org/x/tools/internal/gocommand&#45;&gt;golang.org/x/tools/internal/event/keys</title>
<path fill="none" stroke="#a8a8a8" d="M510,-482C531,-482 546,-482 546,-482 546,-482 546,-212 546,-212 546,-212 644,-212 644,-212"/>
<polygon fill="#a8a8a8" stroke="#a8a8a8" points="644,-214 650,-212 644,-210 644,-214"/>
</g>
<!-- golang.org/x/tools/internal/event/label -->
<g id="node30" class="node">
<title>golang.org/x/tools/internal/event/label</title>
<polygon fill="#d4d4d4" stroke="#a6a6a6" points="452,-130 200,-130 200,-134 188,-134 188,-94 452,-94 452,-130"/>
<polyline fill="none" stroke="#a6a6a6" points="188,-130 200,-130"/>
<text text-anchor="middle" x="320" y="-107" font-family="Courier New" font-size="14.00">golang.org/x/tools/event/label</text>
</g>
<!-- golang.org/x/tools/internal/gocommand&#45;&gt;golang.org/x/tools/internal/event/label -->
<g id="edge42" class="edge">
<title>golang.org/x/tools/internal/gocommand&#45;&gt;golang.org/x/tools/internal/event/label</title>
<path fill="none" stroke="#a8a8a8" d="M281,-470C281,-470 281,-138 281,-138"/>
<polygon fill="#a8a8a8" stroke="#a8a8a8" points="283,-138 281,-132 279,-138 283,-138"/>
</g>
<!-- golang.org/x/tools/internal/typesinternal&#45;&gt;golang.org/x/tools/go/ast/inspector -->
<g id="edge43" class="edge">
<title>golang.org/x/tools/internal/typesinternal&#45;&gt;golang.org/x/tools/go/ast/inspector</title>
<path fill="none" stroke="#a8a8a8" d="M1681,-200C1494,-200 1187,-200 1187,-200 1187,-200 1187,-138 1187,-138"/>
<polygon fill="#a8a8a8" stroke="#a8a8a8" points="1189,-138 1187,-132 1185,-138 1189,-138"/>
</g>
<!-- golang.org/x/tools/go/types/typeutil -->
<g id="node24" class="node">
<title>golang.org/x/tools/go/types/typeutil</title>
<polygon fill="#d4d4d4" stroke="#a6a6a6" points="1762,-130 1461,-130 1461,-134 1449,-134 1449,-94 1762,-94 1762,-130"/>
<polyline fill="none" stroke="#a6a6a6" points="1449,-130 1461,-130"/>
<text text-anchor="middle" x="1605" y="-107" font-family="Courier New" font-size="14.00">golang.org/x/tools/go/types/typeutil</text>
</g>
<!-- golang.org/x/tools/internal/typesinternal&#45;&gt;golang.org/x/tools/go/types/typeutil -->
<g id="edge44" class="edge">
<title>golang.org/x/tools/internal/typesinternal&#45;&gt;golang.org/x/tools/go/types/typeutil</title>
<path fill="none" stroke="#a8a8a8" d="M1735,-188C1735,-188 1735,-138 1735,-138"/>
<polygon fill="#a8a8a8" stroke="#a8a8a8" points="1737,-138 1735,-132 1733,-138 1737,-138"/>
</g>
<!-- golang.org/x/tools/internal/stdlib -->
<g id="node32" class="node">
<title>golang.org/x/tools/internal/stdlib</title>
<polygon fill="#d4d4d4" stroke="#a6a6a6" points="1846,-36 1636,-36 1636,-40 1624,-40 1624,0 1846,0 1846,-36"/>
<polyline fill="none" stroke="#a6a6a6" points="1624,-36 1636,-36"/>
<text text-anchor="middle" x="1735" y="-13" font-family="Courier New" font-size="14.00">golang.org/x/tools/stdlib</text>
</g>
<!-- golang.org/x/tools/internal/typesinternal&#45;&gt;golang.org/x/tools/internal/stdlib -->
<g id="edge45" class="edge">
<title>golang.org/x/tools/internal/typesinternal&#45;&gt;golang.org/x/tools/internal/stdlib</title>
<path fill="none" stroke="#a8a8a8" d="M1804,-188C1804,-188 1804,-44 1804,-44"/>
<polygon fill="#a8a8a8" stroke="#a8a8a8" points="1806,-44 1804,-38 1802,-44 1806,-44"/>
</g>
<!-- golang.org/x/tools/internal/versions -->
<g id="node33" class="node">
<title>golang.org/x/tools/internal/versions</title>
<polygon fill="#d4d4d4" stroke="#a6a6a6" points="792,-130 565,-130 565,-134 553,-134 553,-94 792,-94 792,-130"/>
<polyline fill="none" stroke="#a6a6a6" points="553,-130 565,-130"/>
<text text-anchor="middle" x="672" y="-107" font-family="Courier New" font-size="14.00">golang.org/x/tools/versions</text>
</g>
<!-- golang.org/x/tools/internal/typesinternal&#45;&gt;golang.org/x/tools/internal/versions -->
<g id="edge46" class="edge">
<title>golang.org/x/tools/internal/typesinternal&#45;&gt;golang.org/x/tools/internal/versions</title>
<path fill="none" stroke="#a8a8a8" d="M1708,-188C1708,-175 1708,-159 1708,-159 1708,-159 722,-159 722,-159 722,-159 722,-138 722,-138"/>
<polygon fill="#a8a8a8" stroke="#a8a8a8" points="724,-138 722,-132 719,-138 724,-138"/>
</g>
<!-- golang.org/x/tools/go/types/objectpath&#45;&gt;golang.org/x/tools/internal/typesinternal -->
<g id="edge27" class="edge">
<title>golang.org/x/tools/go/types/objectpath&#45;&gt;golang.org/x/tools/internal/typesinternal</title>
<path fill="none" stroke="#a8a8a8" d="M2170,-282C2170,-255 2170,-206 2170,-206 2170,-206 1969,-206 1969,-206"/>
<polygon fill="#a8a8a8" stroke="#a8a8a8" points="1969,-204 1963,-206 1969,-208 1969,-204"/>
</g>
<!-- golang.org/x/tools/internal/typeparams -->
<g id="node25" class="node">
<title>golang.org/x/tools/internal/typeparams</title>
<polygon fill="#d4d4d4" stroke="#a6a6a6" points="1523,-36 1280,-36 1280,-40 1268,-40 1268,0 1523,0 1523,-36"/>
<polyline fill="none" stroke="#a6a6a6" points="1268,-36 1280,-36"/>
<text text-anchor="middle" x="1395" y="-13" font-family="Courier New" font-size="14.00">golang.org/x/tools/typeparams</text>
</g>
<!-- golang.org/x/tools/go/types/typeutil&#45;&gt;golang.org/x/tools/internal/typeparams -->
<g id="edge28" class="edge">
<title>golang.org/x/tools/go/types/typeutil&#45;&gt;golang.org/x/tools/internal/typeparams</title>
<path fill="none" stroke="#a8a8a8" d="M1486,-94C1486,-94 1486,-44 1486,-44"/>
<polygon fill="#a8a8a8" stroke="#a8a8a8" points="1488,-44 1486,-38 1484,-44 1488,-44"/>
</g>
<!-- golang.org/x/tools/internal/event/core -->
<g id="node28" class="node">
<title>golang.org/x/tools/internal/event/core</title>
<polygon fill="#d4d4d4" stroke="#a6a6a6" points="1166,-318 923,-318 923,-322 911,-322 911,-282 1166,-282 1166,-318"/>
<polyline fill="none" stroke="#a6a6a6" points="911,-318 923,-318"/>
<text text-anchor="middle" x="1038" y="-295" font-family="Courier New" font-size="14.00">golang.org/x/tools/event/core</text>
</g>
<!-- golang.org/x/tools/internal/event&#45;&gt;golang.org/x/tools/internal/event/core -->
<g id="edge29" class="edge">
<title>golang.org/x/tools/internal/event&#45;&gt;golang.org/x/tools/internal/event/core</title>
<path fill="none" stroke="#a8a8a8" d="M936,-376C936,-376 936,-326 936,-326"/>
<polygon fill="#a8a8a8" stroke="#a8a8a8" points="938,-326 936,-320 934,-326 938,-326"/>
</g>
<!-- golang.org/x/tools/internal/event&#45;&gt;golang.org/x/tools/internal/event/keys -->
<g id="edge30" class="edge">
<title>golang.org/x/tools/internal/event&#45;&gt;golang.org/x/tools/internal/event/keys</title>
<path fill="none" stroke="#a8a8a8" d="M801,-376C801,-376 801,-232 801,-232"/>
<polygon fill="#a8a8a8" stroke="#a8a8a8" points="803,-232 801,-226 799,-232 803,-232"/>
</g>
<!-- golang.org/x/tools/internal/event&#45;&gt;golang.org/x/tools/internal/event/label -->
<g id="edge31" class="edge">
<title>golang.org/x/tools/internal/event&#45;&gt;golang.org/x/tools/internal/event/label</title>
<path fill="none" stroke="#a8a8a8" d="M748,-388C586,-388 300,-388 300,-388 300,-388 300,-138 300,-138"/>
<polygon fill="#a8a8a8" stroke="#a8a8a8" points="302,-138 300,-132 298,-138 302,-138"/>
</g>
<!-- golang.org/x/tools/internal/event/core&#45;&gt;golang.org/x/tools/internal/event/keys -->
<g id="edge32" class="edge">
<title>golang.org/x/tools/internal/event/core&#45;&gt;golang.org/x/tools/internal/event/keys</title>
<path fill="none" stroke="#a8a8a8" d="M910,-294C879,-294 854,-294 854,-294 854,-294 854,-232 854,-232"/>
<polygon fill="#a8a8a8" stroke="#a8a8a8" points="856,-232 854,-226 852,-232 856,-232"/>
</g>
<!-- golang.org/x/tools/internal/event/core&#45;&gt;golang.org/x/tools/internal/event/label -->
<g id="edge33" class="edge">
<title>golang.org/x/tools/internal/event/core&#45;&gt;golang.org/x/tools/internal/event/label</title>
<path fill="none" stroke="#a8a8a8" d="M910,-306C704,-306 319,-306 319,-306 319,-306 319,-138 319,-138"/>
<polygon fill="#a8a8a8" stroke="#a8a8a8" points="321,-138 319,-132 316,-138 321,-138"/>
</g>
<!-- golang.org/x/tools/internal/event/keys&#45;&gt;golang.org/x/tools/internal/event/label -->
<g id="edge34" class="edge">
<title>golang.org/x/tools/internal/event/keys&#45;&gt;golang.org/x/tools/internal/event/label</title>
<path fill="none" stroke="#a8a8a8" d="M651,-200C598,-200 550,-200 550,-200 550,-200 550,-112 550,-112 550,-112 460,-112 460,-112"/>
<polygon fill="#a8a8a8" stroke="#a8a8a8" points="460,-110 454,-112 460,-114 460,-110"/>
</g>
</g>
</svg>
