<?xml version="1.0" encoding="UTF-8" standalone="no"?>
<!DOCTYPE svg PUBLIC "-//W3C//DTD SVG 1.1//EN"
 "http://www.w3.org/Graphics/SVG/1.1/DTD/svg11.dtd">
<!-- Generated by graphviz version 12.2.1 (20241206.2353)
 -->
<!-- Title: DepGraph Pages: 1 -->
<svg width="1512pt" height="535pt"
 viewBox="0.00 0.00 1512.43 534.80" xmlns="http://www.w3.org/2000/svg" xmlns:xlink="http://www.w3.org/1999/xlink">
<g id="graph0" class="graph" transform="scale(1 1) rotate(0) translate(14.4 520.4)">
<title>DepGraph</title>
<polygon fill="white" stroke="none" points="-14,14 -14,-520 1498,-520 1498,14 -14,14"/>
<!-- github.com/codemityio/goforma -->
<g id="node1" class="node">
<title>github.com/codemityio/goforma</title>
<polygon fill="#fcfcfc" stroke="#949494" points="527,-506 283,-506 283,-510 271,-510 271,-470 527,-470 527,-506"/>
<polyline fill="none" stroke="#949494" points="271,-506 283,-506"/>
<text text-anchor="middle" x="399" y="-483" font-family="Courier New" font-size="14.00">github.com/codemityio/goforma</text>
</g>
<!-- github.com/codemityio/goforma/cmd/badge -->
<g id="node2" class="node">
<title>github.com/codemityio/goforma/cmd/badge</title>
<polygon fill="#fcfcfc" stroke="#949494" points="408,-412 82,-412 82,-416 70,-416 70,-376 408,-376 408,-412"/>
<polyline fill="none" stroke="#949494" points="70,-412 82,-412"/>
<text text-anchor="middle" x="239" y="-389" font-family="Courier New" font-size="14.00">github.com/codemityio/goforma/cmd/badge</text>
</g>
<!-- github.com/codemityio/goforma&#45;&gt;github.com/codemityio/goforma/cmd/badge -->
<g id="edge1" class="edge">
<title>github.com/codemityio/goforma&#45;&gt;github.com/codemityio/goforma/cmd/badge</title>
<path fill="none" stroke="#a8a8a8" d="M340,-470C340,-470 340,-420 340,-420"/>
<polygon fill="#a8a8a8" stroke="#a8a8a8" points="342,-420 340,-414 338,-420 342,-420"/>
</g>
<!-- github.com/codemityio/goforma/cmd/code -->
<g id="node3" class="node">
<title>github.com/codemityio/goforma/cmd/code</title>
<polygon fill="#fcfcfc" stroke="#949494" points="1158,-412 840,-412 840,-416 828,-416 828,-376 1158,-376 1158,-412"/>
<polyline fill="none" stroke="#949494" points="828,-412 840,-412"/>
<text text-anchor="middle" x="993" y="-389" font-family="Courier New" font-size="14.00">github.com/codemityio/goforma/cmd/code</text>
</g>
<!-- github.com/codemityio/goforma&#45;&gt;github.com/codemityio/goforma/cmd/code -->
<g id="edge2" class="edge">
<title>github.com/codemityio/goforma&#45;&gt;github.com/codemityio/goforma/cmd/code</title>
<path fill="none" stroke="#a8a8a8" d="M513,-470C513,-444 513,-400 513,-400 513,-400 821,-400 821,-400"/>
<polygon fill="#a8a8a8" stroke="#a8a8a8" points="821,-402 827,-400 821,-398 821,-402"/>
</g>
<!-- github.com/urfave/cli/v2 -->
<g id="node4" class="node">
<title>github.com/urfave/cli/v2</title>
<polygon fill="#d4d4d4" stroke="#a6a6a6" points="214,-318 12,-318 12,-322 0,-322 0,-282 214,-282 214,-318"/>
<polyline fill="none" stroke="#a6a6a6" points="0,-318 12,-318"/>
<text text-anchor="middle" x="107" y="-295" font-family="Courier New" font-size="14.00">github.com/urfave/cli/v2</text>
</g>
<!-- github.com/codemityio/goforma&#45;&gt;github.com/urfave/cli/v2 -->
<g id="edge3" class="edge">
<title>github.com/codemityio/goforma&#45;&gt;github.com/urfave/cli/v2</title>
<path fill="none" stroke="#a8a8a8" d="M271,-488C166,-488 35,-488 35,-488 35,-488 35,-326 35,-326"/>
<polygon fill="#a8a8a8" stroke="#a8a8a8" points="37,-326 35,-320 33,-326 37,-326"/>
</g>
<!-- github.com/codemityio/goforma/cmd/badge&#45;&gt;github.com/urfave/cli/v2 -->
<g id="edge4" class="edge">
<title>github.com/codemityio/goforma/cmd/badge&#45;&gt;github.com/urfave/cli/v2</title>
<path fill="none" stroke="#a8a8a8" d="M142,-376C142,-376 142,-326 142,-326"/>
<polygon fill="#a8a8a8" stroke="#a8a8a8" points="144,-326 142,-320 140,-326 144,-326"/>
</g>
<!-- github.com/codemityio/goforma/cmd/code&#45;&gt;github.com/urfave/cli/v2 -->
<g id="edge9" class="edge">
<title>github.com/codemityio/goforma/cmd/code&#45;&gt;github.com/urfave/cli/v2</title>
<path fill="none" stroke="#a8a8a8" d="M828,-388C705,-388 559,-388 559,-388 559,-388 559,-300 559,-300 559,-300 222,-300 222,-300"/>
<polygon fill="#a8a8a8" stroke="#a8a8a8" points="222,-298 216,-300 222,-302 222,-298"/>
</g>
<!-- github.com/codemityio/goforma/pkg/code/doc -->
<g id="node5" class="node">
<title>github.com/codemityio/goforma/pkg/code/doc</title>
<polygon fill="#fcfcfc" stroke="#949494" points="1408,-130 1058,-130 1058,-134 1046,-134 1046,-94 1408,-94 1408,-130"/>
<polyline fill="none" stroke="#949494" points="1046,-130 1058,-130"/>
<text text-anchor="middle" x="1227" y="-107" font-family="Courier New" font-size="14.00">github.com/codemityio/goforma/pkg/code/doc</text>
</g>
<!-- github.com/codemityio/goforma/cmd/code&#45;&gt;github.com/codemityio/goforma/pkg/code/doc -->
<g id="edge5" class="edge">
<title>github.com/codemityio/goforma/cmd/code&#45;&gt;github.com/codemityio/goforma/pkg/code/doc</title>
<path fill="none" stroke="#a8a8a8" d="M1071,-376C1071,-376 1071,-138 1071,-138"/>
<polygon fill="#a8a8a8" stroke="#a8a8a8" points="1073,-138 1071,-132 1069,-138 1073,-138"/>
</g>
<!-- github.com/codemityio/goforma/pkg/code/gen -->
<g id="node6" class="node">
<title>github.com/codemityio/goforma/pkg/code/gen</title>
<polygon fill="#fcfcfc" stroke="#949494" points="954,-318 604,-318 604,-322 592,-322 592,-282 954,-282 954,-318"/>
<polyline fill="none" stroke="#949494" points="592,-318 604,-318"/>
<text text-anchor="middle" x="773" y="-295" font-family="Courier New" font-size="14.00">github.com/codemityio/goforma/pkg/code/gen</text>
</g>
<!-- github.com/codemityio/goforma/cmd/code&#45;&gt;github.com/codemityio/goforma/pkg/code/gen -->
<g id="edge6" class="edge">
<title>github.com/codemityio/goforma/cmd/code&#45;&gt;github.com/codemityio/goforma/pkg/code/gen</title>
<path fill="none" stroke="#a8a8a8" d="M891,-376C891,-376 891,-326 891,-326"/>
<polygon fill="#a8a8a8" stroke="#a8a8a8" points="893,-326 891,-320 889,-326 893,-326"/>
</g>
<!-- github.com/codemityio/goforma/pkg/code/imports -->
<g id="node7" class="node">
<title>github.com/codemityio/goforma/pkg/code/imports</title>
<polygon fill="#fcfcfc" stroke="#949494" points="996,-224 612,-224 612,-228 600,-228 600,-188 996,-188 996,-224"/>
<polyline fill="none" stroke="#949494" points="600,-224 612,-224"/>
<text text-anchor="middle" x="798" y="-201" font-family="Courier New" font-size="14.00">github.com/codemityio/goforma/pkg/code/imports</text>
</g>
<!-- github.com/codemityio/goforma/cmd/code&#45;&gt;github.com/codemityio/goforma/pkg/code/imports -->
<g id="edge7" class="edge">
<title>github.com/codemityio/goforma/cmd/code&#45;&gt;github.com/codemityio/goforma/pkg/code/imports</title>
<path fill="none" stroke="#a8a8a8" d="M975,-376C975,-376 975,-232 975,-232"/>
<polygon fill="#a8a8a8" stroke="#a8a8a8" points="977,-232 975,-226 973,-232 977,-232"/>
</g>
<!-- github.com/codemityio/goforma/pkg/code/parser -->
<g id="node8" class="node">
<title>github.com/codemityio/goforma/pkg/code/parser</title>
<polygon fill="#fcfcfc" stroke="#949494" points="1484,-224 1108,-224 1108,-228 1096,-228 1096,-188 1484,-188 1484,-224"/>
<polyline fill="none" stroke="#949494" points="1096,-224 1108,-224"/>
<text text-anchor="middle" x="1290" y="-201" font-family="Courier New" font-size="14.00">github.com/codemityio/goforma/pkg/code/parser</text>
</g>
<!-- github.com/codemityio/goforma/cmd/code&#45;&gt;github.com/codemityio/goforma/pkg/code/parser -->
<g id="edge8" class="edge">
<title>github.com/codemityio/goforma/cmd/code&#45;&gt;github.com/codemityio/goforma/pkg/code/parser</title>
<path fill="none" stroke="#a8a8a8" d="M1137,-376C1137,-376 1137,-232 1137,-232"/>
<polygon fill="#a8a8a8" stroke="#a8a8a8" points="1139,-232 1137,-226 1135,-232 1139,-232"/>
</g>
<!-- github.com/cpuguy83/go&#45;md2man/v2/md2man -->
<g id="node10" class="node">
<title>github.com/cpuguy83/go&#45;md2man/v2/md2man</title>
<polygon fill="#d4d4d4" stroke="#a6a6a6" points="499,-224 173,-224 173,-228 161,-228 161,-188 499,-188 499,-224"/>
<polyline fill="none" stroke="#a6a6a6" points="161,-224 173,-224"/>
<text text-anchor="middle" x="330" y="-201" font-family="Courier New" font-size="14.00">github.com/cpuguy83/go&#45;md2man/v2/md2man</text>
</g>
<!-- github.com/urfave/cli/v2&#45;&gt;github.com/cpuguy83/go&#45;md2man/v2/md2man -->
<g id="edge16" class="edge">
<title>github.com/urfave/cli/v2&#45;&gt;github.com/cpuguy83/go&#45;md2man/v2/md2man</title>
<path fill="none" stroke="#a8a8a8" d="M188,-282C188,-282 188,-232 188,-232"/>
<polygon fill="#a8a8a8" stroke="#a8a8a8" points="190,-232 188,-226 185,-232 190,-232"/>
</g>
<!-- github.com/xrash/smetrics -->
<g id="node12" class="node">
<title>github.com/xrash/smetrics</title>
<polygon fill="#d4d4d4" stroke="#a6a6a6" points="279,-36 69,-36 69,-40 57,-40 57,0 279,0 279,-36"/>
<polyline fill="none" stroke="#a6a6a6" points="57,-36 69,-36"/>
<text text-anchor="middle" x="168" y="-13" font-family="Courier New" font-size="14.00">github.com/xrash/smetrics</text>
</g>
<!-- github.com/urfave/cli/v2&#45;&gt;github.com/xrash/smetrics -->
<g id="edge17" class="edge">
<title>github.com/urfave/cli/v2&#45;&gt;github.com/xrash/smetrics</title>
<path fill="none" stroke="#a8a8a8" d="M109,-282C109,-282 109,-44 109,-44"/>
<polygon fill="#a8a8a8" stroke="#a8a8a8" points="111,-44 109,-38 107,-44 111,-44"/>
</g>
<!-- github.com/codemityio/goforma/pkg/code/gen&#45;&gt;github.com/codemityio/goforma/pkg/code/imports -->
<g id="edge10" class="edge">
<title>github.com/codemityio/goforma/pkg/code/gen&#45;&gt;github.com/codemityio/goforma/pkg/code/imports</title>
<path fill="none" stroke="#a8a8a8" d="M777,-282C777,-282 777,-232 777,-232"/>
<polygon fill="#a8a8a8" stroke="#a8a8a8" points="779,-232 777,-226 775,-232 779,-232"/>
</g>
<!-- github.com/codemityio/goforma/pkg/code/gen&#45;&gt;github.com/codemityio/goforma/pkg/code/parser -->
<g id="edge11" class="edge">
<title>github.com/codemityio/goforma/pkg/code/gen&#45;&gt;github.com/codemityio/goforma/pkg/code/parser</title>
<path fill="none" stroke="#a8a8a8" d="M955,-300C1037,-300 1117,-300 1117,-300 1117,-300 1117,-232 1117,-232"/>
<polygon fill="#a8a8a8" stroke="#a8a8a8" points="1119,-232 1117,-226 1115,-232 1119,-232"/>
</g>
<!-- golang.org/x/tools/go/packages -->
<g id="node9" class="node">
<title>golang.org/x/tools/go/packages</title>
<polygon fill="#d4d4d4" stroke="#a6a6a6" points="883,-130 631,-130 631,-134 619,-134 619,-94 883,-94 883,-130"/>
<polyline fill="none" stroke="#a6a6a6" points="619,-130 631,-130"/>
<text text-anchor="middle" x="751" y="-107" font-family="Courier New" font-size="14.00">golang.org/x/tools/go/packages</text>
</g>
<!-- github.com/codemityio/goforma/pkg/code/imports&#45;&gt;golang.org/x/tools/go/packages -->
<g id="edge12" class="edge">
<title>github.com/codemityio/goforma/pkg/code/imports&#45;&gt;golang.org/x/tools/go/packages</title>
<path fill="none" stroke="#a8a8a8" d="M751,-188C751,-188 751,-138 751,-138"/>
<polygon fill="#a8a8a8" stroke="#a8a8a8" points="753,-138 751,-132 749,-138 753,-138"/>
</g>
<!-- github.com/codemityio/goforma/pkg/code/parser&#45;&gt;github.com/codemityio/goforma/pkg/code/doc -->
<g id="edge13" class="edge">
<title>github.com/codemityio/goforma/pkg/code/parser&#45;&gt;github.com/codemityio/goforma/pkg/code/doc</title>
<path fill="none" stroke="#a8a8a8" d="M1252,-188C1252,-188 1252,-138 1252,-138"/>
<polygon fill="#a8a8a8" stroke="#a8a8a8" points="1254,-138 1252,-132 1250,-138 1254,-138"/>
</g>
<!-- github.com/codemityio/goforma/pkg/code/parser&#45;&gt;golang.org/x/tools/go/packages -->
<g id="edge14" class="edge">
<title>github.com/codemityio/goforma/pkg/code/parser&#45;&gt;golang.org/x/tools/go/packages</title>
<path fill="none" stroke="#a8a8a8" d="M1096,-206C1053,-206 1021,-206 1021,-206 1021,-206 1021,-112 1021,-112 1021,-112 891,-112 891,-112"/>
<polygon fill="#a8a8a8" stroke="#a8a8a8" points="891,-110 885,-112 891,-114 891,-110"/>
</g>
<!-- golang.org/x/sync/errgroup -->
<g id="node13" class="node">
<title>golang.org/x/sync/errgroup</title>
<polygon fill="#d4d4d4" stroke="#a6a6a6" points="1094,-36 876,-36 876,-40 864,-40 864,0 1094,0 1094,-36"/>
<polyline fill="none" stroke="#a6a6a6" points="864,-36 876,-36"/>
<text text-anchor="middle" x="979" y="-13" font-family="Courier New" font-size="14.00">golang.org/x/sync/errgroup</text>
</g>
<!-- golang.org/x/tools/go/packages&#45;&gt;golang.org/x/sync/errgroup -->
<g id="edge18" class="edge">
<title>golang.org/x/tools/go/packages&#45;&gt;golang.org/x/sync/errgroup</title>
<path fill="none" stroke="#a8a8a8" d="M873,-94C873,-94 873,-44 873,-44"/>
<polygon fill="#a8a8a8" stroke="#a8a8a8" points="875,-44 873,-38 871,-44 875,-44"/>
</g>
<!-- golang.org/x/tools/go/gcexportdata -->
<g id="node14" class="node">
<title>golang.org/x/tools/go/gcexportdata</title>
<polygon fill="#d4d4d4" stroke="#a6a6a6" points="762,-36 478,-36 478,-40 466,-40 466,0 762,0 762,-36"/>
<polyline fill="none" stroke="#a6a6a6" points="466,-36 478,-36"/>
<text text-anchor="middle" x="614" y="-13" font-family="Courier New" font-size="14.00">golang.org/x/tools/go/gcexportdata</text>
</g>
<!-- golang.org/x/tools/go/packages&#45;&gt;golang.org/x/tools/go/gcexportdata -->
<g id="edge19" class="edge">
<title>golang.org/x/tools/go/packages&#45;&gt;golang.org/x/tools/go/gcexportdata</title>
<path fill="none" stroke="#a8a8a8" d="M691,-94C691,-94 691,-44 691,-44"/>
<polygon fill="#a8a8a8" stroke="#a8a8a8" points="693,-44 691,-38 689,-44 693,-44"/>
</g>
<!-- github.com/russross/blackfriday/v2 -->
<g id="node11" class="node">
<title>github.com/russross/blackfriday/v2</title>
<polygon fill="#d4d4d4" stroke="#a6a6a6" points="472,-130 188,-130 188,-134 176,-134 176,-94 472,-94 472,-130"/>
<polyline fill="none" stroke="#a6a6a6" points="176,-130 188,-130"/>
<text text-anchor="middle" x="324" y="-107" font-family="Courier New" font-size="14.00">github.com/russross/blackfriday/v2</text>
</g>
<!-- github.com/cpuguy83/go&#45;md2man/v2/md2man&#45;&gt;github.com/russross/blackfriday/v2 -->
<g id="edge15" class="edge">
<title>github.com/cpuguy83/go&#45;md2man/v2/md2man&#45;&gt;github.com/russross/blackfriday/v2</title>
<path fill="none" stroke="#a8a8a8" d="M324,-188C324,-188 324,-138 324,-138"/>
<polygon fill="#a8a8a8" stroke="#a8a8a8" points="326,-138 324,-132 322,-138 326,-138"/>
</g>
</g>
</svg>
